<svg width="1502" height="502" viewBox="0 0 1502 502" fill="none" xmlns="http://www.w3.org/2000/svg">
<g clip-path="url(#clip0_201_66)">
<rect x="1" y="1" width="1500" height="500" rx="32" fill="white"/>
<g filter="url(#filter0_f_201_66)">
<rect width="358.892" height="376.166" rx="179.446" transform="matrix(-0.719696 -0.694289 -0.621663 0.783285 475.821 49.4205)" fill="url(#paint0_linear_201_66)" fill-opacity="0.08"/>
</g>
<g filter="url(#filter1_f_201_66)">
<rect width="305.152" height="282.626" rx="141.313" transform="matrix(-0.488977 0.872297 0.833048 0.553201 627.725 256.415)" fill="#FBFAFF"/>
<rect width="305.152" height="282.626" rx="141.313" transform="matrix(-0.488977 0.872297 0.833048 0.553201 627.725 256.415)" fill="url(#paint1_linear_201_66)" fill-opacity="0.12"/>
</g>
<g filter="url(#filter2_f_201_66)">
<rect width="414.469" height="409.006" rx="204.503" transform="matrix(-0.488968 -0.872302 -0.81536 0.578954 403.909 305.598)" fill="#FBFAFF"/>
<rect width="414.469" height="409.006" rx="204.503" transform="matrix(-0.488968 -0.872302 -0.81536 0.578954 403.909 305.598)" fill="url(#paint2_linear_201_66)" fill-opacity="0.16"/>
</g>
<path d="M70.5426 163H63.9517L73.9943 133.909H81.9205L91.9489 163H85.358L78.071 140.557H77.8438L70.5426 163ZM70.1307 151.565H85.6989V156.366H70.1307V151.565ZM504.846 163V133.909H510.897V144.847H511.081C511.347 144.259 511.73 143.663 512.232 143.057C512.743 142.441 513.406 141.93 514.221 141.523C515.044 141.106 516.067 140.898 517.289 140.898C518.88 140.898 520.348 141.314 521.692 142.148C523.037 142.972 524.112 144.217 524.917 145.884C525.722 147.541 526.124 149.619 526.124 152.119C526.124 154.553 525.731 156.608 524.945 158.284C524.169 159.951 523.108 161.215 521.763 162.077C520.428 162.929 518.932 163.355 517.275 163.355C516.1 163.355 515.101 163.161 514.277 162.773C513.463 162.384 512.795 161.897 512.275 161.31C511.754 160.713 511.356 160.112 511.081 159.506H510.812V163H504.846ZM510.769 152.091C510.769 153.388 510.949 154.52 511.309 155.486C511.669 156.452 512.189 157.205 512.871 157.744C513.553 158.275 514.382 158.54 515.357 158.54C516.342 158.54 517.175 158.27 517.857 157.73C518.539 157.181 519.055 156.423 519.405 155.457C519.765 154.482 519.945 153.36 519.945 152.091C519.945 150.831 519.77 149.723 519.419 148.767C519.069 147.811 518.553 147.062 517.871 146.523C517.189 145.983 516.351 145.713 515.357 145.713C514.372 145.713 513.539 145.973 512.857 146.494C512.185 147.015 511.669 147.754 511.309 148.71C510.949 149.667 510.769 150.794 510.769 152.091ZM538.401 163.355C536.744 163.355 535.243 162.929 533.899 162.077C532.563 161.215 531.503 159.951 530.717 158.284C529.94 156.608 529.552 154.553 529.552 152.119C529.552 149.619 529.954 147.541 530.759 145.884C531.564 144.217 532.634 142.972 533.97 142.148C535.314 141.314 536.787 140.898 538.387 140.898C539.609 140.898 540.627 141.106 541.441 141.523C542.265 141.93 542.928 142.441 543.43 143.057C543.941 143.663 544.329 144.259 544.595 144.847H544.779V141.182H550.816V163H544.85V159.506H544.595C544.311 160.112 543.908 160.713 543.387 161.31C542.876 161.897 542.208 162.384 541.384 162.773C540.57 163.161 539.576 163.355 538.401 163.355ZM540.319 158.54C541.294 158.54 542.118 158.275 542.791 157.744C543.472 157.205 543.993 156.452 544.353 155.486C544.722 154.52 544.907 153.388 544.907 152.091C544.907 150.794 544.727 149.667 544.367 148.71C544.007 147.754 543.487 147.015 542.805 146.494C542.123 145.973 541.294 145.713 540.319 145.713C539.325 145.713 538.487 145.983 537.805 146.523C537.123 147.062 536.607 147.811 536.257 148.767C535.906 149.723 535.731 150.831 535.731 152.091C535.731 153.36 535.906 154.482 536.257 155.457C536.616 156.423 537.132 157.181 537.805 157.73C538.487 158.27 539.325 158.54 540.319 158.54ZM574.145 147.403L568.605 147.744C568.51 147.271 568.307 146.845 567.994 146.466C567.682 146.078 567.27 145.77 566.758 145.543C566.256 145.306 565.655 145.188 564.954 145.188C564.017 145.188 563.226 145.386 562.582 145.784C561.938 146.172 561.616 146.693 561.616 147.347C561.616 147.867 561.825 148.308 562.241 148.668C562.658 149.027 563.373 149.316 564.386 149.534L568.335 150.33C570.456 150.765 572.038 151.466 573.079 152.432C574.121 153.398 574.642 154.667 574.642 156.239C574.642 157.669 574.221 158.923 573.378 160.003C572.544 161.082 571.399 161.925 569.94 162.531C568.491 163.128 566.82 163.426 564.926 163.426C562.038 163.426 559.737 162.825 558.023 161.622C556.318 160.41 555.319 158.762 555.025 156.679L560.977 156.366C561.157 157.247 561.593 157.92 562.284 158.384C562.975 158.838 563.861 159.065 564.94 159.065C566.001 159.065 566.853 158.862 567.497 158.455C568.15 158.038 568.482 157.503 568.491 156.849C568.482 156.3 568.25 155.85 567.795 155.5C567.341 155.14 566.64 154.866 565.693 154.676L561.915 153.923C559.784 153.497 558.198 152.759 557.156 151.707C556.124 150.656 555.608 149.316 555.608 147.688C555.608 146.286 555.987 145.079 556.744 144.065C557.511 143.052 558.586 142.271 559.969 141.722C561.361 141.172 562.989 140.898 564.855 140.898C567.611 140.898 569.779 141.48 571.361 142.645C572.952 143.81 573.88 145.396 574.145 147.403ZM588.595 163.426C586.351 163.426 584.419 162.972 582.8 162.062C581.19 161.144 579.95 159.847 579.078 158.17C578.207 156.485 577.772 154.491 577.772 152.19C577.772 149.946 578.207 147.976 579.078 146.281C579.95 144.586 581.176 143.265 582.757 142.318C584.348 141.371 586.214 140.898 588.354 140.898C589.793 140.898 591.133 141.13 592.374 141.594C593.624 142.048 594.713 142.735 595.641 143.653C596.578 144.572 597.308 145.727 597.828 147.119C598.349 148.502 598.61 150.121 598.61 151.977V153.639H580.186V149.889H592.914C592.914 149.018 592.724 148.246 592.345 147.574C591.967 146.902 591.441 146.376 590.769 145.997C590.106 145.609 589.334 145.415 588.453 145.415C587.535 145.415 586.72 145.628 586.01 146.054C585.309 146.471 584.76 147.034 584.362 147.744C583.965 148.445 583.761 149.226 583.752 150.088V153.653C583.752 154.733 583.951 155.666 584.348 156.452C584.755 157.238 585.328 157.844 586.067 158.27C586.806 158.696 587.682 158.909 588.695 158.909C589.367 158.909 589.983 158.814 590.541 158.625C591.1 158.436 591.578 158.152 591.976 157.773C592.374 157.394 592.677 156.93 592.885 156.381L598.482 156.75C598.198 158.095 597.615 159.269 596.735 160.273C595.863 161.267 594.737 162.044 593.354 162.602C591.981 163.152 590.395 163.426 588.595 163.426ZM610.798 163.355C609.141 163.355 607.64 162.929 606.295 162.077C604.96 161.215 603.9 159.951 603.114 158.284C602.337 156.608 601.949 154.553 601.949 152.119C601.949 149.619 602.351 147.541 603.156 145.884C603.961 144.217 605.031 142.972 606.366 142.148C607.711 141.314 609.184 140.898 610.784 140.898C612.006 140.898 613.024 141.106 613.838 141.523C614.662 141.93 615.325 142.441 615.827 143.057C616.338 143.663 616.726 144.259 616.991 144.847H617.176V133.909H623.213V163H617.247V159.506H616.991C616.707 160.112 616.305 160.713 615.784 161.31C615.273 161.897 614.605 162.384 613.781 162.773C612.967 163.161 611.973 163.355 610.798 163.355ZM612.716 158.54C613.691 158.54 614.515 158.275 615.188 157.744C615.869 157.205 616.39 156.452 616.75 155.486C617.119 154.52 617.304 153.388 617.304 152.091C617.304 150.794 617.124 149.667 616.764 148.71C616.404 147.754 615.884 147.015 615.202 146.494C614.52 145.973 613.691 145.713 612.716 145.713C611.722 145.713 610.884 145.983 610.202 146.523C609.52 147.062 609.004 147.811 608.653 148.767C608.303 149.723 608.128 150.831 608.128 152.091C608.128 153.36 608.303 154.482 608.653 155.457C609.013 156.423 609.529 157.181 610.202 157.73C610.884 158.27 611.722 158.54 612.716 158.54ZM637.846 163V141.182H643.897V163H637.846ZM640.886 138.369C639.986 138.369 639.214 138.071 638.57 137.474C637.936 136.868 637.619 136.144 637.619 135.301C637.619 134.468 637.936 133.753 638.57 133.156C639.214 132.55 639.986 132.247 640.886 132.247C641.785 132.247 642.552 132.55 643.187 133.156C643.831 133.753 644.153 134.468 644.153 135.301C644.153 136.144 643.831 136.868 643.187 137.474C642.552 138.071 641.785 138.369 640.886 138.369ZM654.996 150.386V163H648.944V141.182H654.711V145.031H654.967C655.45 143.762 656.26 142.759 657.396 142.02C658.533 141.272 659.91 140.898 661.53 140.898C663.045 140.898 664.366 141.229 665.493 141.892C666.62 142.555 667.496 143.502 668.121 144.733C668.746 145.955 669.058 147.413 669.058 149.108V163H663.007V150.188C663.016 148.852 662.675 147.811 661.984 147.062C661.293 146.305 660.341 145.926 659.129 145.926C658.315 145.926 657.595 146.101 656.97 146.452C656.354 146.802 655.872 147.313 655.521 147.986C655.18 148.649 655.005 149.449 654.996 150.386ZM65.5284 211V181.909H77.1761C79.3163 181.909 81.1013 182.226 82.5312 182.861C83.9612 183.495 85.036 184.376 85.7557 185.503C86.4754 186.62 86.8352 187.908 86.8352 189.366C86.8352 190.503 86.608 191.502 86.1534 192.364C85.6989 193.216 85.0739 193.917 84.2784 194.466C83.4924 195.006 82.5928 195.389 81.5795 195.616V195.901C82.6875 195.948 83.7244 196.26 84.6903 196.838C85.6657 197.416 86.4564 198.225 87.0625 199.267C87.6686 200.299 87.9716 201.53 87.9716 202.96C87.9716 204.504 87.5881 205.882 86.821 207.094C86.0634 208.296 84.9413 209.248 83.4545 209.949C81.9678 210.65 80.1354 211 77.9574 211H65.5284ZM71.679 205.972H76.6932C78.4072 205.972 79.6572 205.645 80.4432 204.991C81.2292 204.329 81.6222 203.448 81.6222 202.349C81.6222 201.545 81.428 200.834 81.0398 200.219C80.6515 199.603 80.0975 199.12 79.3778 198.77C78.6676 198.42 77.8201 198.244 76.8352 198.244H71.679V205.972ZM71.679 194.082H76.2386C77.0814 194.082 77.8295 193.936 78.483 193.642C79.1458 193.339 79.6667 192.913 80.0455 192.364C80.4337 191.814 80.6278 191.156 80.6278 190.389C80.6278 189.338 80.2538 188.491 79.5057 187.847C78.767 187.203 77.7159 186.881 76.3523 186.881H71.679V194.082ZM101.918 211.426C99.7116 211.426 97.8035 210.957 96.1936 210.02C94.5932 209.073 93.3574 207.757 92.4862 206.071C91.615 204.376 91.1794 202.411 91.1794 200.176C91.1794 197.922 91.615 195.953 92.4862 194.267C93.3574 192.572 94.5932 191.256 96.1936 190.318C97.8035 189.371 99.7116 188.898 101.918 188.898C104.124 188.898 106.028 189.371 107.628 190.318C109.238 191.256 110.479 192.572 111.35 194.267C112.221 195.953 112.657 197.922 112.657 200.176C112.657 202.411 112.221 204.376 111.35 206.071C110.479 207.757 109.238 209.073 107.628 210.02C106.028 210.957 104.124 211.426 101.918 211.426ZM101.946 206.739C102.95 206.739 103.788 206.455 104.461 205.886C105.133 205.309 105.64 204.523 105.981 203.528C106.331 202.534 106.506 201.402 106.506 200.134C106.506 198.865 106.331 197.733 105.981 196.739C105.64 195.744 105.133 194.958 104.461 194.381C103.788 193.803 102.95 193.514 101.946 193.514C100.933 193.514 100.081 193.803 99.3896 194.381C98.7078 194.958 98.1917 195.744 97.8413 196.739C97.5004 197.733 97.33 198.865 97.33 200.134C97.33 201.402 97.5004 202.534 97.8413 203.528C98.1917 204.523 98.7078 205.309 99.3896 205.886C100.081 206.455 100.933 206.739 101.946 206.739ZM126.621 219.636C124.661 219.636 122.98 219.366 121.578 218.827C120.186 218.296 119.078 217.572 118.254 216.653C117.431 215.735 116.896 214.703 116.649 213.557L122.246 212.804C122.416 213.24 122.686 213.647 123.056 214.026C123.425 214.404 123.913 214.707 124.519 214.935C125.134 215.171 125.882 215.29 126.763 215.29C128.079 215.29 129.163 214.968 130.016 214.324C130.878 213.689 131.308 212.624 131.308 211.128V207.136H131.053C130.788 207.742 130.39 208.315 129.86 208.855C129.329 209.395 128.647 209.835 127.814 210.176C126.981 210.517 125.986 210.688 124.831 210.688C123.193 210.688 121.701 210.309 120.357 209.551C119.021 208.784 117.956 207.615 117.161 206.043C116.375 204.461 115.982 202.463 115.982 200.048C115.982 197.577 116.384 195.512 117.189 193.855C117.994 192.198 119.064 190.957 120.399 190.134C121.744 189.31 123.217 188.898 124.817 188.898C126.038 188.898 127.061 189.106 127.885 189.523C128.709 189.93 129.372 190.441 129.874 191.057C130.385 191.663 130.778 192.259 131.053 192.847H131.28V189.182H137.288V211.213C137.288 213.069 136.834 214.622 135.925 215.872C135.016 217.122 133.756 218.06 132.146 218.685C130.546 219.319 128.704 219.636 126.621 219.636ZM126.749 206.142C127.724 206.142 128.548 205.901 129.22 205.418C129.902 204.925 130.423 204.224 130.783 203.315C131.152 202.397 131.337 201.298 131.337 200.02C131.337 198.741 131.157 197.634 130.797 196.696C130.437 195.749 129.916 195.015 129.235 194.494C128.553 193.973 127.724 193.713 126.749 193.713C125.754 193.713 124.916 193.983 124.235 194.523C123.553 195.053 123.037 195.792 122.686 196.739C122.336 197.686 122.161 198.779 122.161 200.02C122.161 201.279 122.336 202.368 122.686 203.287C123.046 204.196 123.562 204.902 124.235 205.403C124.916 205.896 125.754 206.142 126.749 206.142ZM152.162 211.426C149.955 211.426 148.047 210.957 146.437 210.02C144.837 209.073 143.601 207.757 142.73 206.071C141.859 204.376 141.423 202.411 141.423 200.176C141.423 197.922 141.859 195.953 142.73 194.267C143.601 192.572 144.837 191.256 146.437 190.318C148.047 189.371 149.955 188.898 152.162 188.898C154.368 188.898 156.272 189.371 157.872 190.318C159.482 191.256 160.722 192.572 161.594 194.267C162.465 195.953 162.9 197.922 162.9 200.176C162.9 202.411 162.465 204.376 161.594 206.071C160.722 207.757 159.482 209.073 157.872 210.02C156.272 210.957 154.368 211.426 152.162 211.426ZM152.19 206.739C153.194 206.739 154.032 206.455 154.704 205.886C155.377 205.309 155.883 204.523 156.224 203.528C156.575 202.534 156.75 201.402 156.75 200.134C156.75 198.865 156.575 197.733 156.224 196.739C155.883 195.744 155.377 194.958 154.704 194.381C154.032 193.803 153.194 193.514 152.19 193.514C151.177 193.514 150.325 193.803 149.633 194.381C148.952 194.958 148.435 195.744 148.085 196.739C147.744 197.733 147.574 198.865 147.574 200.134C147.574 201.402 147.744 202.534 148.085 203.528C148.435 204.523 148.952 205.309 149.633 205.886C150.325 206.455 151.177 206.739 152.19 206.739ZM167.035 211V189.182H172.902V192.989H173.129C173.527 191.634 174.194 190.612 175.132 189.92C176.069 189.22 177.149 188.869 178.37 188.869C178.673 188.869 179 188.888 179.35 188.926C179.701 188.964 180.009 189.016 180.274 189.082V194.452C179.99 194.366 179.597 194.291 179.095 194.224C178.593 194.158 178.134 194.125 177.717 194.125C176.827 194.125 176.031 194.319 175.331 194.707C174.639 195.086 174.09 195.616 173.683 196.298C173.285 196.98 173.086 197.766 173.086 198.656V211H167.035ZM193.174 211V181.909H204.651C206.848 181.909 208.723 182.302 210.276 183.088C211.838 183.865 213.027 184.968 213.841 186.398C214.665 187.818 215.077 189.49 215.077 191.412C215.077 193.344 214.66 195.006 213.827 196.398C212.994 197.78 211.786 198.841 210.205 199.58C208.633 200.318 206.73 200.688 204.495 200.688H196.81V195.744H203.5C204.675 195.744 205.65 195.583 206.427 195.261C207.203 194.939 207.781 194.456 208.16 193.812C208.548 193.169 208.742 192.368 208.742 191.412C208.742 190.446 208.548 189.632 208.16 188.969C207.781 188.306 207.198 187.804 206.412 187.463C205.636 187.113 204.656 186.938 203.472 186.938H199.324V211H193.174ZM208.884 197.761L216.114 211H209.324L202.25 197.761H208.884ZM229.102 211.426C226.857 211.426 224.926 210.972 223.306 210.062C221.696 209.144 220.456 207.847 219.585 206.17C218.713 204.485 218.278 202.491 218.278 200.19C218.278 197.946 218.713 195.976 219.585 194.281C220.456 192.586 221.682 191.265 223.264 190.318C224.855 189.371 226.72 188.898 228.86 188.898C230.3 188.898 231.64 189.13 232.88 189.594C234.13 190.048 235.219 190.735 236.147 191.653C237.085 192.572 237.814 193.727 238.335 195.119C238.855 196.502 239.116 198.121 239.116 199.977V201.639H220.693V197.889H233.42C233.42 197.018 233.23 196.246 232.852 195.574C232.473 194.902 231.947 194.376 231.275 193.997C230.612 193.609 229.84 193.415 228.96 193.415C228.041 193.415 227.227 193.628 226.516 194.054C225.816 194.471 225.266 195.034 224.869 195.744C224.471 196.445 224.267 197.226 224.258 198.088V201.653C224.258 202.733 224.457 203.666 224.855 204.452C225.262 205.238 225.835 205.844 226.573 206.27C227.312 206.696 228.188 206.909 229.201 206.909C229.873 206.909 230.489 206.814 231.048 206.625C231.606 206.436 232.085 206.152 232.482 205.773C232.88 205.394 233.183 204.93 233.391 204.381L238.988 204.75C238.704 206.095 238.122 207.269 237.241 208.273C236.37 209.267 235.243 210.044 233.86 210.602C232.487 211.152 230.901 211.426 229.102 211.426ZM253.094 219.636C251.134 219.636 249.453 219.366 248.052 218.827C246.66 218.296 245.552 217.572 244.728 216.653C243.904 215.735 243.369 214.703 243.123 213.557L248.719 212.804C248.89 213.24 249.16 213.647 249.529 214.026C249.898 214.404 250.386 214.707 250.992 214.935C251.608 215.171 252.356 215.29 253.236 215.29C254.553 215.29 255.637 214.968 256.489 214.324C257.351 213.689 257.782 212.624 257.782 211.128V207.136H257.526C257.261 207.742 256.863 208.315 256.333 208.855C255.803 209.395 255.121 209.835 254.288 210.176C253.454 210.517 252.46 210.688 251.305 210.688C249.666 210.688 248.175 210.309 246.83 209.551C245.495 208.784 244.43 207.615 243.634 206.043C242.848 204.461 242.455 202.463 242.455 200.048C242.455 197.577 242.858 195.512 243.663 193.855C244.467 192.198 245.538 190.957 246.873 190.134C248.217 189.31 249.69 188.898 251.29 188.898C252.512 188.898 253.535 189.106 254.359 189.523C255.182 189.93 255.845 190.441 256.347 191.057C256.859 191.663 257.252 192.259 257.526 192.847H257.753V189.182H263.762V211.213C263.762 213.069 263.307 214.622 262.398 215.872C261.489 217.122 260.23 218.06 258.62 218.685C257.02 219.319 255.178 219.636 253.094 219.636ZM253.222 206.142C254.198 206.142 255.021 205.901 255.694 205.418C256.376 204.925 256.896 204.224 257.256 203.315C257.626 202.397 257.81 201.298 257.81 200.02C257.81 198.741 257.63 197.634 257.27 196.696C256.911 195.749 256.39 195.015 255.708 194.494C255.026 193.973 254.198 193.713 253.222 193.713C252.228 193.713 251.39 193.983 250.708 194.523C250.026 195.053 249.51 195.792 249.16 196.739C248.809 197.686 248.634 198.779 248.634 200.02C248.634 201.279 248.809 202.368 249.16 203.287C249.52 204.196 250.036 204.902 250.708 205.403C251.39 205.896 252.228 206.142 253.222 206.142ZM278.72 211.426C276.476 211.426 274.544 210.972 272.925 210.062C271.315 209.144 270.075 207.847 269.203 206.17C268.332 204.485 267.897 202.491 267.897 200.19C267.897 197.946 268.332 195.976 269.203 194.281C270.075 192.586 271.301 191.265 272.882 190.318C274.473 189.371 276.339 188.898 278.479 188.898C279.918 188.898 281.258 189.13 282.499 189.594C283.749 190.048 284.838 190.735 285.766 191.653C286.703 192.572 287.433 193.727 287.953 195.119C288.474 196.502 288.735 198.121 288.735 199.977V201.639H270.311V197.889H283.039C283.039 197.018 282.849 196.246 282.47 195.574C282.092 194.902 281.566 194.376 280.894 193.997C280.231 193.609 279.459 193.415 278.578 193.415C277.66 193.415 276.845 193.628 276.135 194.054C275.434 194.471 274.885 195.034 274.488 195.744C274.09 196.445 273.886 197.226 273.877 198.088V201.653C273.877 202.733 274.076 203.666 274.473 204.452C274.88 205.238 275.453 205.844 276.192 206.27C276.931 206.696 277.807 206.909 278.82 206.909C279.492 206.909 280.108 206.814 280.666 206.625C281.225 206.436 281.703 206.152 282.101 205.773C282.499 205.394 282.802 204.93 283.01 204.381L288.607 204.75C288.323 206.095 287.74 207.269 286.86 208.273C285.988 209.267 284.862 210.044 283.479 210.602C282.106 211.152 280.52 211.426 278.72 211.426ZM298.935 198.386V211H292.884V189.182H298.651V193.031H298.906C299.389 191.762 300.199 190.759 301.335 190.02C302.472 189.272 303.849 188.898 305.469 188.898C306.984 188.898 308.305 189.229 309.432 189.892C310.559 190.555 311.435 191.502 312.06 192.733C312.685 193.955 312.997 195.413 312.997 197.108V211H306.946V198.188C306.955 196.852 306.615 195.811 305.923 195.062C305.232 194.305 304.28 193.926 303.068 193.926C302.254 193.926 301.534 194.101 300.909 194.452C300.294 194.802 299.811 195.313 299.46 195.986C299.119 196.649 298.944 197.449 298.935 198.386ZM327.824 211.426C325.589 211.426 323.667 210.953 322.057 210.006C320.457 209.049 319.226 207.723 318.364 206.028C317.512 204.333 317.086 202.383 317.086 200.176C317.086 197.941 317.517 195.981 318.378 194.295C319.249 192.6 320.485 191.279 322.086 190.332C323.686 189.376 325.589 188.898 327.796 188.898C329.699 188.898 331.366 189.243 332.796 189.935C334.226 190.626 335.357 191.597 336.191 192.847C337.024 194.097 337.483 195.564 337.569 197.25H331.858C331.697 196.161 331.271 195.285 330.58 194.622C329.898 193.95 329.003 193.614 327.895 193.614C326.958 193.614 326.139 193.869 325.438 194.381C324.747 194.883 324.207 195.616 323.819 196.582C323.43 197.548 323.236 198.718 323.236 200.091C323.236 201.483 323.426 202.667 323.804 203.642C324.193 204.617 324.737 205.361 325.438 205.872C326.139 206.384 326.958 206.639 327.895 206.639C328.587 206.639 329.207 206.497 329.756 206.213C330.315 205.929 330.774 205.517 331.134 204.977C331.503 204.428 331.745 203.77 331.858 203.003H337.569C337.474 204.67 337.019 206.137 336.205 207.406C335.4 208.666 334.287 209.651 332.867 210.361C331.446 211.071 329.766 211.426 327.824 211.426ZM345.379 219.182C344.612 219.182 343.892 219.12 343.22 218.997C342.557 218.884 342.007 218.737 341.572 218.557L342.936 214.04C343.646 214.258 344.285 214.376 344.853 214.395C345.431 214.414 345.928 214.281 346.345 213.997C346.771 213.713 347.116 213.23 347.382 212.548L347.737 211.625L339.91 189.182H346.274L350.791 205.205H351.018L355.578 189.182H361.984L353.504 213.358C353.096 214.532 352.543 215.555 351.842 216.426C351.15 217.307 350.275 217.984 349.214 218.457C348.153 218.94 346.875 219.182 345.379 219.182ZM370.49 207.023L370.334 208.585C370.211 209.835 369.974 211.08 369.623 212.321C369.283 213.571 368.923 214.703 368.544 215.716C368.175 216.729 367.876 217.525 367.649 218.102H363.729C363.871 217.544 364.065 216.762 364.311 215.759C364.557 214.764 364.789 213.647 365.007 212.406C365.225 211.166 365.362 209.902 365.419 208.614L365.49 207.023H370.49ZM390.975 211L382.651 181.909H389.37L394.185 202.122H394.427L399.739 181.909H405.492L410.79 202.165H411.046L415.862 181.909H422.58L414.256 211H408.262L402.722 191.98H402.495L396.969 211H390.975ZM433.558 211.426C431.314 211.426 429.382 210.972 427.763 210.062C426.153 209.144 424.912 207.847 424.041 206.17C423.17 204.485 422.734 202.491 422.734 200.19C422.734 197.946 423.17 195.976 424.041 194.281C424.912 192.586 426.138 191.265 427.72 190.318C429.311 189.371 431.176 188.898 433.316 188.898C434.756 188.898 436.096 189.13 437.336 189.594C438.586 190.048 439.675 190.735 440.603 191.653C441.541 192.572 442.27 193.727 442.791 195.119C443.312 196.502 443.572 198.121 443.572 199.977V201.639H425.149V197.889H437.876C437.876 197.018 437.687 196.246 437.308 195.574C436.929 194.902 436.404 194.376 435.731 193.997C435.068 193.609 434.297 193.415 433.416 193.415C432.497 193.415 431.683 193.628 430.973 194.054C430.272 194.471 429.723 195.034 429.325 195.744C428.927 196.445 428.724 197.226 428.714 198.088V201.653C428.714 202.733 428.913 203.666 429.311 204.452C429.718 205.238 430.291 205.844 431.03 206.27C431.768 206.696 432.644 206.909 433.657 206.909C434.33 206.909 434.945 206.814 435.504 206.625C436.063 206.436 436.541 206.152 436.939 205.773C437.336 205.394 437.639 204.93 437.848 204.381L443.444 204.75C443.16 206.095 442.578 207.269 441.697 208.273C440.826 209.267 439.699 210.044 438.316 210.602C436.943 211.152 435.357 211.426 433.558 211.426ZM465.874 195.403L460.335 195.744C460.24 195.271 460.036 194.845 459.724 194.466C459.411 194.078 458.999 193.77 458.488 193.543C457.986 193.306 457.385 193.188 456.684 193.188C455.747 193.188 454.956 193.386 454.312 193.784C453.668 194.172 453.346 194.693 453.346 195.347C453.346 195.867 453.554 196.308 453.971 196.668C454.388 197.027 455.103 197.316 456.116 197.534L460.065 198.33C462.186 198.765 463.767 199.466 464.809 200.432C465.851 201.398 466.372 202.667 466.372 204.239C466.372 205.669 465.95 206.923 465.107 208.003C464.274 209.082 463.128 209.925 461.67 210.531C460.221 211.128 458.55 211.426 456.656 211.426C453.767 211.426 451.466 210.825 449.752 209.622C448.048 208.41 447.049 206.762 446.755 204.679L452.707 204.366C452.887 205.247 453.322 205.92 454.014 206.384C454.705 206.838 455.59 207.065 456.67 207.065C457.73 207.065 458.583 206.862 459.227 206.455C459.88 206.038 460.212 205.503 460.221 204.849C460.212 204.3 459.98 203.85 459.525 203.5C459.07 203.14 458.37 202.866 457.423 202.676L453.644 201.923C451.514 201.497 449.927 200.759 448.886 199.707C447.854 198.656 447.337 197.316 447.337 195.688C447.337 194.286 447.716 193.079 448.474 192.065C449.241 191.052 450.316 190.271 451.698 189.722C453.09 189.172 454.719 188.898 456.585 188.898C459.34 188.898 461.509 189.48 463.09 190.645C464.681 191.81 465.609 193.396 465.874 195.403ZM481.987 189.182V193.727H468.848V189.182H481.987ZM471.831 183.955H477.882V204.295C477.882 204.854 477.967 205.29 478.138 205.602C478.308 205.905 478.545 206.118 478.848 206.241C479.16 206.365 479.52 206.426 479.927 206.426C480.212 206.426 480.496 206.402 480.78 206.355C481.064 206.298 481.282 206.256 481.433 206.227L482.385 210.73C482.082 210.825 481.656 210.934 481.106 211.057C480.557 211.189 479.89 211.27 479.104 211.298C477.645 211.355 476.367 211.161 475.268 210.716C474.179 210.271 473.332 209.58 472.726 208.642C472.12 207.705 471.821 206.521 471.831 205.091V183.955ZM507.348 181.909H513.428V202.193C513.428 204.068 513.006 205.697 512.163 207.08C511.33 208.462 510.17 209.527 508.683 210.276C507.196 211.024 505.468 211.398 503.499 211.398C501.747 211.398 500.156 211.09 498.726 210.474C497.305 209.849 496.179 208.902 495.345 207.634C494.512 206.355 494.1 204.75 494.109 202.818H500.232C500.25 203.585 500.407 204.243 500.7 204.793C501.003 205.332 501.415 205.749 501.936 206.043C502.466 206.327 503.091 206.469 503.811 206.469C504.569 206.469 505.208 206.308 505.729 205.986C506.259 205.654 506.661 205.171 506.936 204.537C507.211 203.902 507.348 203.121 507.348 202.193V181.909ZM526.639 211.355C524.982 211.355 523.481 210.929 522.136 210.077C520.801 209.215 519.74 207.951 518.954 206.284C518.178 204.608 517.79 202.553 517.79 200.119C517.79 197.619 518.192 195.541 518.997 193.884C519.802 192.217 520.872 190.972 522.207 190.148C523.552 189.314 525.024 188.898 526.625 188.898C527.846 188.898 528.864 189.106 529.679 189.523C530.503 189.93 531.165 190.441 531.667 191.057C532.179 191.663 532.567 192.259 532.832 192.847H533.017V189.182H539.054V211H533.088V207.506H532.832C532.548 208.112 532.146 208.713 531.625 209.31C531.113 209.897 530.446 210.384 529.622 210.773C528.807 211.161 527.813 211.355 526.639 211.355ZM528.557 206.54C529.532 206.54 530.356 206.275 531.028 205.744C531.71 205.205 532.231 204.452 532.591 203.486C532.96 202.52 533.145 201.388 533.145 200.091C533.145 198.794 532.965 197.667 532.605 196.71C532.245 195.754 531.724 195.015 531.042 194.494C530.361 193.973 529.532 193.713 528.557 193.713C527.562 193.713 526.724 193.983 526.042 194.523C525.361 195.062 524.844 195.811 524.494 196.767C524.144 197.723 523.968 198.831 523.968 200.091C523.968 201.36 524.144 202.482 524.494 203.457C524.854 204.423 525.37 205.181 526.042 205.73C526.724 206.27 527.562 206.54 528.557 206.54ZM564.57 189.182L556.942 211H550.124L542.496 189.182H548.888L553.419 204.793H553.646L558.163 189.182H564.57ZM575.203 211.355C573.546 211.355 572.045 210.929 570.7 210.077C569.365 209.215 568.304 207.951 567.518 206.284C566.742 204.608 566.354 202.553 566.354 200.119C566.354 197.619 566.756 195.541 567.561 193.884C568.366 192.217 569.436 190.972 570.771 190.148C572.116 189.314 573.588 188.898 575.189 188.898C576.41 188.898 577.428 189.106 578.243 189.523C579.067 189.93 579.73 190.441 580.231 191.057C580.743 191.663 581.131 192.259 581.396 192.847H581.581V189.182H587.618V211H581.652V207.506H581.396C581.112 208.112 580.71 208.713 580.189 209.31C579.677 209.897 579.01 210.384 578.186 210.773C577.372 211.161 576.377 211.355 575.203 211.355ZM577.121 206.54C578.096 206.54 578.92 206.275 579.592 205.744C580.274 205.205 580.795 204.452 581.155 203.486C581.524 202.52 581.709 201.388 581.709 200.091C581.709 198.794 581.529 197.667 581.169 196.71C580.809 195.754 580.288 195.015 579.606 194.494C578.925 193.973 578.096 193.713 577.121 193.713C576.126 193.713 575.288 193.983 574.606 194.523C573.925 195.062 573.408 195.811 573.058 196.767C572.708 197.723 572.533 198.831 572.533 200.091C572.533 201.36 572.708 202.482 573.058 203.457C573.418 204.423 573.934 205.181 574.606 205.73C575.288 206.27 576.126 206.54 577.121 206.54ZM599.37 207.023L599.213 208.585C599.09 209.835 598.853 211.08 598.503 212.321C598.162 213.571 597.802 214.703 597.424 215.716C597.054 216.729 596.756 217.525 596.529 218.102H592.608C592.75 217.544 592.944 216.762 593.191 215.759C593.437 214.764 593.669 213.647 593.887 212.406C594.104 211.166 594.242 209.902 594.299 208.614L594.37 207.023H599.37ZM71.679 229.909V259H65.5284V229.909H71.679ZM82.8768 246.386V259H76.8257V237.182H82.5928V241.031H82.8484C83.3314 239.762 84.1411 238.759 85.2774 238.02C86.4138 237.272 87.7916 236.898 89.4109 236.898C90.9261 236.898 92.2471 237.229 93.374 237.892C94.5009 238.555 95.3768 239.502 96.0018 240.733C96.6268 241.955 96.9393 243.413 96.9393 245.108V259H90.8882V246.188C90.8977 244.852 90.5568 243.811 89.8655 243.062C89.1742 242.305 88.2225 241.926 87.0104 241.926C86.196 241.926 85.4763 242.101 84.8513 242.452C84.2357 242.802 83.7528 243.313 83.4024 243.986C83.0615 244.649 82.8863 245.449 82.8768 246.386ZM109.948 259.355C108.291 259.355 106.79 258.929 105.445 258.077C104.11 257.215 103.05 255.951 102.264 254.284C101.487 252.608 101.099 250.553 101.099 248.119C101.099 245.619 101.501 243.541 102.306 241.884C103.111 240.217 104.181 238.972 105.516 238.148C106.861 237.314 108.334 236.898 109.934 236.898C111.156 236.898 112.174 237.106 112.988 237.523C113.812 237.93 114.475 238.441 114.977 239.057C115.488 239.663 115.876 240.259 116.141 240.847H116.326V229.909H122.363V259H116.397V255.506H116.141C115.857 256.112 115.455 256.713 114.934 257.31C114.423 257.897 113.755 258.384 112.931 258.773C112.117 259.161 111.123 259.355 109.948 259.355ZM111.866 254.54C112.841 254.54 113.665 254.275 114.338 253.744C115.019 253.205 115.54 252.452 115.9 251.486C116.269 250.52 116.454 249.388 116.454 248.091C116.454 246.794 116.274 245.667 115.914 244.71C115.554 243.754 115.034 243.015 114.352 242.494C113.67 241.973 112.841 241.713 111.866 241.713C110.872 241.713 110.034 241.983 109.352 242.523C108.67 243.062 108.154 243.811 107.803 244.767C107.453 245.723 107.278 246.831 107.278 248.091C107.278 249.36 107.453 250.482 107.803 251.457C108.163 252.423 108.679 253.181 109.352 253.73C110.034 254.27 110.872 254.54 111.866 254.54ZM137.396 259.426C135.19 259.426 133.282 258.957 131.672 258.02C130.071 257.073 128.836 255.757 127.964 254.071C127.093 252.376 126.658 250.411 126.658 248.176C126.658 245.922 127.093 243.953 127.964 242.267C128.836 240.572 130.071 239.256 131.672 238.318C133.282 237.371 135.19 236.898 137.396 236.898C139.603 236.898 141.506 237.371 143.106 238.318C144.716 239.256 145.957 240.572 146.828 242.267C147.699 243.953 148.135 245.922 148.135 248.176C148.135 250.411 147.699 252.376 146.828 254.071C145.957 255.757 144.716 257.073 143.106 258.02C141.506 258.957 139.603 259.426 137.396 259.426ZM137.425 254.739C138.428 254.739 139.266 254.455 139.939 253.886C140.611 253.309 141.118 252.523 141.459 251.528C141.809 250.534 141.984 249.402 141.984 248.134C141.984 246.865 141.809 245.733 141.459 244.739C141.118 243.744 140.611 242.958 139.939 242.381C139.266 241.803 138.428 241.514 137.425 241.514C136.411 241.514 135.559 241.803 134.868 242.381C134.186 242.958 133.67 243.744 133.319 244.739C132.979 245.733 132.808 246.865 132.808 248.134C132.808 249.402 132.979 250.534 133.319 251.528C133.67 252.523 134.186 253.309 134.868 253.886C135.559 254.455 136.411 254.739 137.425 254.739ZM158.321 246.386V259H152.269V237.182H158.037V241.031H158.292C158.775 239.762 159.585 238.759 160.721 238.02C161.858 237.272 163.235 236.898 164.855 236.898C166.37 236.898 167.691 237.229 168.818 237.892C169.945 238.555 170.821 239.502 171.446 240.733C172.071 241.955 172.383 243.413 172.383 245.108V259H166.332V246.188C166.341 244.852 166.001 243.811 165.309 243.062C164.618 242.305 163.666 241.926 162.454 241.926C161.64 241.926 160.92 242.101 160.295 242.452C159.68 242.802 159.197 243.313 158.846 243.986C158.505 244.649 158.33 245.449 158.321 246.386ZM187.295 259.426C185.051 259.426 183.119 258.972 181.5 258.062C179.89 257.144 178.65 255.847 177.778 254.17C176.907 252.485 176.472 250.491 176.472 248.19C176.472 245.946 176.907 243.976 177.778 242.281C178.65 240.586 179.876 239.265 181.457 238.318C183.048 237.371 184.914 236.898 187.054 236.898C188.493 236.898 189.833 237.13 191.074 237.594C192.324 238.048 193.413 238.735 194.341 239.653C195.278 240.572 196.008 241.727 196.528 243.119C197.049 244.502 197.31 246.121 197.31 247.977V249.639H178.886V245.889H191.614C191.614 245.018 191.424 244.246 191.045 243.574C190.667 242.902 190.141 242.376 189.469 241.997C188.806 241.609 188.034 241.415 187.153 241.415C186.235 241.415 185.42 241.628 184.71 242.054C184.009 242.471 183.46 243.034 183.062 243.744C182.665 244.445 182.461 245.226 182.452 246.088V249.653C182.452 250.733 182.651 251.666 183.048 252.452C183.455 253.238 184.028 253.844 184.767 254.27C185.506 254.696 186.382 254.909 187.395 254.909C188.067 254.909 188.683 254.814 189.241 254.625C189.8 254.436 190.278 254.152 190.676 253.773C191.074 253.394 191.377 252.93 191.585 252.381L197.182 252.75C196.898 254.095 196.315 255.269 195.435 256.273C194.563 257.267 193.437 258.044 192.054 258.602C190.681 259.152 189.095 259.426 187.295 259.426ZM219.612 243.403L214.072 243.744C213.977 243.271 213.774 242.845 213.461 242.466C213.149 242.078 212.737 241.77 212.226 241.543C211.724 241.306 211.122 241.188 210.422 241.188C209.484 241.188 208.693 241.386 208.049 241.784C207.405 242.172 207.084 242.693 207.084 243.347C207.084 243.867 207.292 244.308 207.709 244.668C208.125 245.027 208.84 245.316 209.853 245.534L213.802 246.33C215.923 246.765 217.505 247.466 218.547 248.432C219.588 249.398 220.109 250.667 220.109 252.239C220.109 253.669 219.688 254.923 218.845 256.003C218.012 257.082 216.866 257.925 215.407 258.531C213.959 259.128 212.287 259.426 210.393 259.426C207.505 259.426 205.204 258.825 203.49 257.622C201.785 256.41 200.786 254.762 200.493 252.679L206.444 252.366C206.624 253.247 207.06 253.92 207.751 254.384C208.442 254.838 209.328 255.065 210.407 255.065C211.468 255.065 212.32 254.862 212.964 254.455C213.618 254.038 213.949 253.503 213.959 252.849C213.949 252.3 213.717 251.85 213.262 251.5C212.808 251.14 212.107 250.866 211.16 250.676L207.382 249.923C205.251 249.497 203.665 248.759 202.623 247.707C201.591 246.656 201.075 245.316 201.075 243.688C201.075 242.286 201.454 241.079 202.211 240.065C202.978 239.052 204.053 238.271 205.436 237.722C206.828 237.172 208.457 236.898 210.322 236.898C213.078 236.898 215.246 237.48 216.828 238.645C218.419 239.81 219.347 241.396 219.612 243.403ZM224.119 259V237.182H230.171V259H224.119ZM227.159 234.369C226.26 234.369 225.488 234.071 224.844 233.474C224.209 232.868 223.892 232.144 223.892 231.301C223.892 230.468 224.209 229.753 224.844 229.156C225.488 228.55 226.26 228.247 227.159 228.247C228.059 228.247 228.826 228.55 229.46 229.156C230.104 229.753 230.426 230.468 230.426 231.301C230.426 232.144 230.104 232.868 229.46 233.474C228.826 234.071 228.059 234.369 227.159 234.369ZM243.258 259.355C241.6 259.355 240.1 258.929 238.755 258.077C237.42 257.215 236.359 255.951 235.573 254.284C234.797 252.608 234.408 250.553 234.408 248.119C234.408 245.619 234.811 243.541 235.616 241.884C236.421 240.217 237.491 238.972 238.826 238.148C240.171 237.314 241.643 236.898 243.243 236.898C244.465 236.898 245.483 237.106 246.297 237.523C247.121 237.93 247.784 238.441 248.286 239.057C248.797 239.663 249.186 240.259 249.451 240.847H249.636V237.182H255.672V259H249.707V255.506H249.451C249.167 256.112 248.764 256.713 248.243 257.31C247.732 257.897 247.064 258.384 246.241 258.773C245.426 259.161 244.432 259.355 243.258 259.355ZM245.175 254.54C246.151 254.54 246.975 254.275 247.647 253.744C248.329 253.205 248.85 252.452 249.209 251.486C249.579 250.52 249.763 249.388 249.763 248.091C249.763 246.794 249.583 245.667 249.224 244.71C248.864 243.754 248.343 243.015 247.661 242.494C246.979 241.973 246.151 241.713 245.175 241.713C244.181 241.713 243.343 241.983 242.661 242.523C241.979 243.062 241.463 243.811 241.113 244.767C240.762 245.723 240.587 246.831 240.587 248.091C240.587 249.36 240.762 250.482 241.113 251.457C241.473 252.423 241.989 253.181 242.661 253.73C243.343 254.27 244.181 254.54 245.175 254.54ZM264.385 259.369C263.447 259.369 262.642 259.038 261.97 258.375C261.307 257.703 260.975 256.898 260.975 255.96C260.975 255.032 261.307 254.237 261.97 253.574C262.642 252.911 263.447 252.58 264.385 252.58C265.294 252.58 266.089 252.911 266.771 253.574C267.453 254.237 267.794 255.032 267.794 255.96C267.794 256.585 267.633 257.158 267.311 257.679C266.998 258.19 266.586 258.602 266.075 258.915C265.563 259.218 265 259.369 264.385 259.369Z" fill="#1C4D5D"/>
<path d="M105.108 163V133.909H124.369V138.98H111.259V145.912H123.091V150.983H111.259V163H105.108ZM128.241 163V141.182H134.108V144.989H134.335C134.733 143.634 135.4 142.612 136.338 141.92C137.275 141.22 138.355 140.869 139.577 140.869C139.88 140.869 140.206 140.888 140.557 140.926C140.907 140.964 141.215 141.016 141.48 141.082V146.452C141.196 146.366 140.803 146.291 140.301 146.224C139.799 146.158 139.34 146.125 138.923 146.125C138.033 146.125 137.238 146.319 136.537 146.707C135.846 147.086 135.296 147.616 134.889 148.298C134.491 148.98 134.292 149.766 134.292 150.656V163H128.241ZM153.651 163.426C151.444 163.426 149.536 162.957 147.926 162.02C146.326 161.073 145.09 159.757 144.219 158.071C143.348 156.376 142.912 154.411 142.912 152.176C142.912 149.922 143.348 147.953 144.219 146.267C145.09 144.572 146.326 143.256 147.926 142.318C149.536 141.371 151.444 140.898 153.651 140.898C155.857 140.898 157.761 141.371 159.361 142.318C160.971 143.256 162.211 144.572 163.083 146.267C163.954 147.953 164.389 149.922 164.389 152.176C164.389 154.411 163.954 156.376 163.083 158.071C162.211 159.757 160.971 161.073 159.361 162.02C157.761 162.957 155.857 163.426 153.651 163.426ZM153.679 158.739C154.683 158.739 155.521 158.455 156.193 157.886C156.866 157.309 157.372 156.523 157.713 155.528C158.064 154.534 158.239 153.402 158.239 152.134C158.239 150.865 158.064 149.733 157.713 148.739C157.372 147.744 156.866 146.958 156.193 146.381C155.521 145.803 154.683 145.514 153.679 145.514C152.666 145.514 151.814 145.803 151.122 146.381C150.441 146.958 149.925 147.744 149.574 148.739C149.233 149.733 149.063 150.865 149.063 152.134C149.063 153.402 149.233 154.534 149.574 155.528C149.925 156.523 150.441 157.309 151.122 157.886C151.814 158.455 152.666 158.739 153.679 158.739ZM174.575 150.386V163H168.524V141.182H174.291V145.031H174.547C175.03 143.762 175.839 142.759 176.976 142.02C178.112 141.272 179.49 140.898 181.109 140.898C182.625 140.898 183.946 141.229 185.072 141.892C186.199 142.555 187.075 143.502 187.7 144.733C188.325 145.955 188.638 147.413 188.638 149.108V163H182.587V150.188C182.596 148.852 182.255 147.811 181.564 147.062C180.873 146.305 179.921 145.926 178.709 145.926C177.894 145.926 177.175 146.101 176.55 146.452C175.934 146.802 175.451 147.313 175.101 147.986C174.76 148.649 174.585 149.449 174.575 150.386ZM205.212 141.182V145.727H192.073V141.182H205.212ZM195.056 135.955H201.107V156.295C201.107 156.854 201.192 157.29 201.363 157.602C201.533 157.905 201.77 158.118 202.073 158.241C202.385 158.365 202.745 158.426 203.152 158.426C203.437 158.426 203.721 158.402 204.005 158.355C204.289 158.298 204.507 158.256 204.658 158.227L205.61 162.73C205.307 162.825 204.881 162.934 204.331 163.057C203.782 163.189 203.115 163.27 202.329 163.298C200.87 163.355 199.592 163.161 198.493 162.716C197.404 162.271 196.557 161.58 195.951 160.642C195.345 159.705 195.046 158.521 195.056 157.091V135.955ZM219.063 163.426C216.818 163.426 214.886 162.972 213.267 162.062C211.657 161.144 210.417 159.847 209.546 158.17C208.674 156.485 208.239 154.491 208.239 152.19C208.239 149.946 208.674 147.976 209.546 146.281C210.417 144.586 211.643 143.265 213.225 142.318C214.815 141.371 216.681 140.898 218.821 140.898C220.261 140.898 221.601 141.13 222.841 141.594C224.091 142.048 225.18 142.735 226.108 143.653C227.046 144.572 227.775 145.727 228.296 147.119C228.816 148.502 229.077 150.121 229.077 151.977V153.639H210.654V149.889H223.381C223.381 149.018 223.191 148.246 222.813 147.574C222.434 146.902 221.908 146.376 221.236 145.997C220.573 145.609 219.801 145.415 218.921 145.415C218.002 145.415 217.188 145.628 216.477 146.054C215.777 146.471 215.227 147.034 214.83 147.744C214.432 148.445 214.228 149.226 214.219 150.088V153.653C214.219 154.733 214.418 155.666 214.815 156.452C215.223 157.238 215.796 157.844 216.534 158.27C217.273 158.696 218.149 158.909 219.162 158.909C219.834 158.909 220.45 158.814 221.009 158.625C221.567 158.436 222.046 158.152 222.443 157.773C222.841 157.394 223.144 156.93 223.352 156.381L228.949 156.75C228.665 158.095 228.083 159.269 227.202 160.273C226.331 161.267 225.204 162.044 223.821 162.602C222.448 163.152 220.862 163.426 219.063 163.426ZM239.277 150.386V163H233.226V141.182H238.993V145.031H239.248C239.731 143.762 240.541 142.759 241.677 142.02C242.814 141.272 244.192 140.898 245.811 140.898C247.326 140.898 248.647 141.229 249.774 141.892C250.901 142.555 251.777 143.502 252.402 144.733C253.027 145.955 253.339 147.413 253.339 149.108V163H247.288V150.188C247.298 148.852 246.957 147.811 246.265 147.062C245.574 146.305 244.622 145.926 243.41 145.926C242.596 145.926 241.876 146.101 241.251 146.452C240.636 146.802 240.153 147.313 239.802 147.986C239.462 148.649 239.286 149.449 239.277 150.386ZM266.348 163.355C264.691 163.355 263.19 162.929 261.845 162.077C260.51 161.215 259.45 159.951 258.664 158.284C257.887 156.608 257.499 154.553 257.499 152.119C257.499 149.619 257.901 147.541 258.706 145.884C259.511 144.217 260.581 142.972 261.916 142.148C263.261 141.314 264.734 140.898 266.334 140.898C267.556 140.898 268.574 141.106 269.388 141.523C270.212 141.93 270.875 142.441 271.377 143.057C271.888 143.663 272.276 144.259 272.541 144.847H272.726V133.909H278.763V163H272.797V159.506H272.541C272.257 160.112 271.855 160.713 271.334 161.31C270.823 161.897 270.155 162.384 269.331 162.773C268.517 163.161 267.523 163.355 266.348 163.355ZM268.266 158.54C269.241 158.54 270.065 158.275 270.738 157.744C271.419 157.205 271.94 156.452 272.3 155.486C272.669 154.52 272.854 153.388 272.854 152.091C272.854 150.794 272.674 149.667 272.314 148.71C271.954 147.754 271.434 147.015 270.752 146.494C270.07 145.973 269.241 145.713 268.266 145.713C267.272 145.713 266.434 145.983 265.752 146.523C265.07 147.062 264.554 147.811 264.203 148.767C263.853 149.723 263.678 150.831 263.678 152.091C263.678 153.36 263.853 154.482 264.203 155.457C264.563 156.423 265.079 157.181 265.752 157.73C266.434 158.27 267.272 158.54 268.266 158.54ZM303.822 163H293.51V133.909H303.907C306.834 133.909 309.352 134.491 311.464 135.656C313.576 136.812 315.2 138.473 316.336 140.642C317.482 142.811 318.055 145.405 318.055 148.426C318.055 151.456 317.482 154.061 316.336 156.239C315.2 158.417 313.566 160.088 311.436 161.253C309.315 162.418 306.777 163 303.822 163ZM299.66 157.73H303.566C305.385 157.73 306.914 157.408 308.155 156.764C309.405 156.111 310.342 155.102 310.967 153.739C311.602 152.366 311.919 150.595 311.919 148.426C311.919 146.277 311.602 144.52 310.967 143.156C310.342 141.793 309.409 140.789 308.169 140.145C306.928 139.501 305.399 139.179 303.581 139.179H299.66V157.73ZM332.641 163.426C330.396 163.426 328.465 162.972 326.845 162.062C325.235 161.144 323.995 159.847 323.124 158.17C322.253 156.485 321.817 154.491 321.817 152.19C321.817 149.946 322.253 147.976 323.124 146.281C323.995 144.586 325.221 143.265 326.803 142.318C328.394 141.371 330.259 140.898 332.399 140.898C333.839 140.898 335.179 141.13 336.419 141.594C337.669 142.048 338.758 142.735 339.686 143.653C340.624 144.572 341.353 145.727 341.874 147.119C342.395 148.502 342.655 150.121 342.655 151.977V153.639H324.232V149.889H336.959C336.959 149.018 336.77 148.246 336.391 147.574C336.012 146.902 335.486 146.376 334.814 145.997C334.151 145.609 333.379 145.415 332.499 145.415C331.58 145.415 330.766 145.628 330.056 146.054C329.355 146.471 328.806 147.034 328.408 147.744C328.01 148.445 327.806 149.226 327.797 150.088V153.653C327.797 154.733 327.996 155.666 328.394 156.452C328.801 157.238 329.374 157.844 330.112 158.27C330.851 158.696 331.727 158.909 332.74 158.909C333.413 158.909 334.028 158.814 334.587 158.625C335.145 158.436 335.624 158.152 336.021 157.773C336.419 157.394 336.722 156.93 336.931 156.381L342.527 156.75C342.243 158.095 341.661 159.269 340.78 160.273C339.909 161.267 338.782 162.044 337.399 162.602C336.026 163.152 334.44 163.426 332.641 163.426ZM366.559 141.182L358.931 163H352.113L344.485 141.182H350.877L355.408 156.793H355.636L360.153 141.182H366.559ZM379.095 163.426C376.851 163.426 374.919 162.972 373.3 162.062C371.69 161.144 370.45 159.847 369.578 158.17C368.707 156.485 368.272 154.491 368.272 152.19C368.272 149.946 368.707 147.976 369.578 146.281C370.45 144.586 371.676 143.265 373.257 142.318C374.848 141.371 376.714 140.898 378.854 140.898C380.293 140.898 381.633 141.13 382.874 141.594C384.124 142.048 385.213 142.735 386.141 143.653C387.078 144.572 387.808 145.727 388.328 147.119C388.849 148.502 389.11 150.121 389.11 151.977V153.639H370.686V149.889H383.414C383.414 149.018 383.224 148.246 382.845 147.574C382.467 146.902 381.941 146.376 381.269 145.997C380.606 145.609 379.834 145.415 378.953 145.415C378.035 145.415 377.22 145.628 376.51 146.054C375.809 146.471 375.26 147.034 374.862 147.744C374.465 148.445 374.261 149.226 374.252 150.088V153.653C374.252 154.733 374.451 155.666 374.848 156.452C375.255 157.238 375.828 157.844 376.567 158.27C377.306 158.696 378.182 158.909 379.195 158.909C379.867 158.909 380.483 158.814 381.041 158.625C381.6 158.436 382.078 158.152 382.476 157.773C382.874 157.394 383.177 156.93 383.385 156.381L388.982 156.75C388.698 158.095 388.115 159.269 387.235 160.273C386.363 161.267 385.237 162.044 383.854 162.602C382.481 163.152 380.895 163.426 379.095 163.426ZM399.31 133.909V163H393.259V133.909H399.31ZM414.215 163.426C412.008 163.426 410.1 162.957 408.49 162.02C406.89 161.073 405.654 159.757 404.783 158.071C403.912 156.376 403.476 154.411 403.476 152.176C403.476 149.922 403.912 147.953 404.783 146.267C405.654 144.572 406.89 143.256 408.49 142.318C410.1 141.371 412.008 140.898 414.215 140.898C416.421 140.898 418.325 141.371 419.925 142.318C421.535 143.256 422.776 144.572 423.647 146.267C424.518 147.953 424.954 149.922 424.954 152.176C424.954 154.411 424.518 156.376 423.647 158.071C422.776 159.757 421.535 161.073 419.925 162.02C418.325 162.957 416.421 163.426 414.215 163.426ZM414.243 158.739C415.247 158.739 416.085 158.455 416.758 157.886C417.43 157.309 417.937 156.523 418.277 155.528C418.628 154.534 418.803 153.402 418.803 152.134C418.803 150.865 418.628 149.733 418.277 148.739C417.937 147.744 417.43 146.958 416.758 146.381C416.085 145.803 415.247 145.514 414.243 145.514C413.23 145.514 412.378 145.803 411.687 146.381C411.005 146.958 410.489 147.744 410.138 148.739C409.797 149.733 409.627 150.865 409.627 152.134C409.627 153.402 409.797 154.534 410.138 155.528C410.489 156.523 411.005 157.309 411.687 157.886C412.378 158.455 413.23 158.739 414.243 158.739ZM429.088 171.182V141.182H435.054V144.847H435.324C435.589 144.259 435.973 143.663 436.475 143.057C436.986 142.441 437.649 141.93 438.463 141.523C439.287 141.106 440.31 140.898 441.531 140.898C443.122 140.898 444.59 141.314 445.935 142.148C447.279 142.972 448.354 144.217 449.159 145.884C449.964 147.541 450.367 149.619 450.367 152.119C450.367 154.553 449.974 156.608 449.188 158.284C448.411 159.951 447.351 161.215 446.006 162.077C444.671 162.929 443.174 163.355 441.517 163.355C440.343 163.355 439.344 163.161 438.52 162.773C437.706 162.384 437.038 161.897 436.517 161.31C435.996 160.713 435.599 160.112 435.324 159.506H435.139V171.182H429.088ZM435.012 152.091C435.012 153.388 435.191 154.52 435.551 155.486C435.911 156.452 436.432 157.205 437.114 157.744C437.796 158.275 438.624 158.54 439.6 158.54C440.584 158.54 441.418 158.27 442.1 157.73C442.781 157.181 443.297 156.423 443.648 155.457C444.008 154.482 444.188 153.36 444.188 152.091C444.188 150.831 444.012 149.723 443.662 148.767C443.312 147.811 442.796 147.062 442.114 146.523C441.432 145.983 440.594 145.713 439.6 145.713C438.615 145.713 437.781 145.973 437.1 146.494C436.427 147.015 435.911 147.754 435.551 148.71C435.191 149.667 435.012 150.794 435.012 152.091ZM464.544 163.426C462.3 163.426 460.368 162.972 458.748 162.062C457.139 161.144 455.898 159.847 455.027 158.17C454.156 156.485 453.72 154.491 453.72 152.19C453.72 149.946 454.156 147.976 455.027 146.281C455.898 144.586 457.124 143.265 458.706 142.318C460.297 141.371 462.162 140.898 464.302 140.898C465.742 140.898 467.082 141.13 468.322 141.594C469.572 142.048 470.661 142.735 471.589 143.653C472.527 144.572 473.256 145.727 473.777 147.119C474.298 148.502 474.558 150.121 474.558 151.977V153.639H456.135V149.889H468.862C468.862 149.018 468.673 148.246 468.294 147.574C467.915 146.902 467.39 146.376 466.717 145.997C466.054 145.609 465.283 145.415 464.402 145.415C463.483 145.415 462.669 145.628 461.959 146.054C461.258 146.471 460.709 147.034 460.311 147.744C459.913 148.445 459.71 149.226 459.7 150.088V153.653C459.7 154.733 459.899 155.666 460.297 156.452C460.704 157.238 461.277 157.844 462.015 158.27C462.754 158.696 463.63 158.909 464.643 158.909C465.316 158.909 465.931 158.814 466.49 158.625C467.049 158.436 467.527 158.152 467.925 157.773C468.322 157.394 468.625 156.93 468.834 156.381L474.43 156.75C474.146 158.095 473.564 159.269 472.683 160.273C471.812 161.267 470.685 162.044 469.302 162.602C467.929 163.152 466.343 163.426 464.544 163.426ZM478.707 163V141.182H484.573V144.989H484.801C485.198 143.634 485.866 142.612 486.804 141.92C487.741 141.22 488.821 140.869 490.042 140.869C490.345 140.869 490.672 140.888 491.022 140.926C491.373 140.964 491.68 141.016 491.946 141.082V146.452C491.661 146.366 491.269 146.291 490.767 146.224C490.265 146.158 489.805 146.125 489.389 146.125C488.499 146.125 487.703 146.319 487.002 146.707C486.311 147.086 485.762 147.616 485.355 148.298C484.957 148.98 484.758 149.766 484.758 150.656V163H478.707Z" fill="#15B1C5"/>
<path d="M67.0312 86L63.4688 72.9091H67.142L69.1705 81.7045H69.2898L71.4034 72.9091H75.0085L77.1562 81.6534H77.267L79.2614 72.9091H82.9261L79.3722 86H75.5284L73.2784 77.767H73.1165L70.8665 86H67.0312ZM87.6453 86L84.0828 72.9091H87.7561L89.7845 81.7045H89.9038L92.0175 72.9091H95.6226L97.7703 81.6534H97.8811L99.8754 72.9091H103.54L99.9862 86H96.1425L93.8925 77.767H93.7305L91.4805 86H87.6453ZM108.259 86L104.697 72.9091H108.37L110.399 81.7045H110.518L112.632 72.9091H116.237L118.384 81.6534H118.495L120.489 72.9091H124.154L120.6 86H116.757L114.507 77.767H114.345L112.095 86H108.259ZM126.632 86.2216C126.069 86.2216 125.587 86.0227 125.183 85.625C124.785 85.2216 124.587 84.7386 124.587 84.1761C124.587 83.6193 124.785 83.142 125.183 82.7443C125.587 82.3466 126.069 82.1477 126.632 82.1477C127.177 82.1477 127.655 82.3466 128.064 82.7443C128.473 83.142 128.677 83.6193 128.677 84.1761C128.677 84.5511 128.581 84.8949 128.388 85.2074C128.2 85.5142 127.953 85.7614 127.646 85.9489C127.339 86.1307 127.001 86.2216 126.632 86.2216ZM138.898 72.9091V75.6364H130.818V72.9091H138.898ZM132.668 86V71.9631C132.668 71.0142 132.853 70.2273 133.222 69.6023C133.597 68.9773 134.108 68.5085 134.756 68.196C135.404 67.8835 136.139 67.7273 136.963 67.7273C137.52 67.7273 138.029 67.7699 138.489 67.8551C138.955 67.9403 139.301 68.017 139.529 68.0852L138.881 70.8125C138.739 70.767 138.563 70.7244 138.353 70.6847C138.148 70.6449 137.938 70.625 137.722 70.625C137.188 70.625 136.816 70.75 136.605 71C136.395 71.2443 136.29 71.5881 136.29 72.0312V86H132.668ZM145.671 86.2131C144.677 86.2131 143.776 85.9574 142.969 85.446C142.168 84.929 141.532 84.1705 141.06 83.1705C140.594 82.1648 140.362 80.9318 140.362 79.4716C140.362 77.9716 140.603 76.7244 141.086 75.7301C141.569 74.7301 142.211 73.983 143.012 73.4886C143.819 72.9886 144.702 72.7386 145.663 72.7386C146.396 72.7386 147.006 72.8636 147.495 73.1136C147.989 73.358 148.387 73.6648 148.688 74.0341C148.995 74.3977 149.228 74.7557 149.387 75.108H149.498V72.9091H153.12V86H149.54V83.9034H149.387C149.217 84.267 148.975 84.6278 148.663 84.9858C148.356 85.3381 147.955 85.6307 147.461 85.8636C146.972 86.0966 146.376 86.2131 145.671 86.2131ZM146.822 83.3239C147.407 83.3239 147.901 83.1648 148.305 82.8466C148.714 82.5227 149.026 82.071 149.242 81.4915C149.464 80.9119 149.575 80.233 149.575 79.4545C149.575 78.6761 149.467 78 149.251 77.4261C149.035 76.8523 148.722 76.4091 148.313 76.0966C147.904 75.7841 147.407 75.6278 146.822 75.6278C146.225 75.6278 145.722 75.7898 145.313 76.1136C144.904 76.4375 144.594 76.8864 144.384 77.4602C144.174 78.0341 144.069 78.6989 144.069 79.4545C144.069 80.2159 144.174 80.8892 144.384 81.4744C144.6 82.054 144.91 82.5085 145.313 82.8381C145.722 83.1619 146.225 83.3239 146.822 83.3239ZM159.936 78.4318V86H156.305V68.5455H159.834V75.2188H159.987C160.282 74.446 160.76 73.8409 161.419 73.4034C162.078 72.9602 162.905 72.7386 163.899 72.7386C164.808 72.7386 165.601 72.9375 166.277 73.3352C166.959 73.7273 167.487 74.2926 167.862 75.0312C168.243 75.7642 168.43 76.642 168.424 77.6648V86H164.794V78.3125C164.799 77.5057 164.595 76.8778 164.18 76.429C163.771 75.9801 163.197 75.7557 162.459 75.7557C161.964 75.7557 161.527 75.8608 161.146 76.071C160.771 76.2812 160.476 76.5881 160.26 76.9915C160.049 77.3892 159.941 77.8693 159.936 78.4318ZM171.482 86V72.9091H174.942V75.2188H175.095C175.368 74.4517 175.823 73.8466 176.459 73.4034C177.095 72.9602 177.857 72.7386 178.743 72.7386C179.641 72.7386 180.405 72.9631 181.036 73.4119C181.666 73.8551 182.087 74.4574 182.297 75.2188H182.433C182.7 74.4688 183.183 73.8693 183.882 73.4205C184.587 72.9659 185.419 72.7386 186.379 72.7386C187.601 72.7386 188.592 73.1278 189.354 73.9062C190.121 74.679 190.504 75.7756 190.504 77.196V86H186.882V77.9119C186.882 77.1847 186.689 76.6392 186.303 76.2756C185.916 75.9119 185.433 75.7301 184.854 75.7301C184.195 75.7301 183.681 75.9403 183.311 76.3608C182.942 76.7756 182.757 77.3239 182.757 78.0057V86H179.237V77.8352C179.237 77.1932 179.053 76.6818 178.683 76.3011C178.32 75.9205 177.84 75.7301 177.243 75.7301C176.84 75.7301 176.476 75.8324 176.152 76.0369C175.834 76.2358 175.581 76.517 175.394 76.8807C175.206 77.2386 175.112 77.6591 175.112 78.142V86H171.482ZM193.572 86V72.9091H197.203V86H193.572ZM195.396 71.2216C194.856 71.2216 194.393 71.0426 194.007 70.6847C193.626 70.321 193.436 69.8864 193.436 69.3807C193.436 68.8807 193.626 68.4517 194.007 68.0938C194.393 67.7301 194.856 67.5483 195.396 67.5483C195.936 67.5483 196.396 67.7301 196.777 68.0938C197.163 68.4517 197.356 68.8807 197.356 69.3807C197.356 69.8864 197.163 70.321 196.777 70.6847C196.396 71.0426 195.936 71.2216 195.396 71.2216ZM200.311 86V72.9091H203.942V86H200.311ZM202.135 71.2216C201.595 71.2216 201.132 71.0426 200.746 70.6847C200.365 70.321 200.175 69.8864 200.175 69.3807C200.175 68.8807 200.365 68.4517 200.746 68.0938C201.132 67.7301 201.595 67.5483 202.135 67.5483C202.675 67.5483 203.135 67.7301 203.516 68.0938C203.902 68.4517 204.095 68.8807 204.095 69.3807C204.095 69.8864 203.902 70.321 203.516 70.6847C203.135 71.0426 202.675 71.2216 202.135 71.2216ZM211.874 86.2131C210.88 86.2131 209.979 85.9574 209.173 85.446C208.371 84.929 207.735 84.1705 207.263 83.1705C206.798 82.1648 206.565 80.9318 206.565 79.4716C206.565 77.9716 206.806 76.7244 207.289 75.7301C207.772 74.7301 208.414 73.983 209.215 73.4886C210.022 72.9886 210.906 72.7386 211.866 72.7386C212.599 72.7386 213.21 72.8636 213.698 73.1136C214.192 73.358 214.59 73.6648 214.891 74.0341C215.198 74.3977 215.431 74.7557 215.59 75.108H215.701V68.5455H219.323V86H215.744V83.9034H215.59C215.42 84.267 215.178 84.6278 214.866 84.9858C214.559 85.3381 214.158 85.6307 213.664 85.8636C213.175 86.0966 212.579 86.2131 211.874 86.2131ZM213.025 83.3239C213.61 83.3239 214.104 83.1648 214.508 82.8466C214.917 82.5227 215.229 82.071 215.445 81.4915C215.667 80.9119 215.778 80.233 215.778 79.4545C215.778 78.6761 215.67 78 215.454 77.4261C215.238 76.8523 214.925 76.4091 214.516 76.0966C214.107 75.7841 213.61 75.6278 213.025 75.6278C212.428 75.6278 211.925 75.7898 211.516 76.1136C211.107 76.4375 210.798 76.8864 210.587 77.4602C210.377 78.0341 210.272 78.6989 210.272 79.4545C210.272 80.2159 210.377 80.8892 210.587 81.4744C210.803 82.054 211.113 82.5085 211.516 82.8381C211.925 83.1619 212.428 83.3239 213.025 83.3239ZM222.508 86V72.9091H226.028V75.1932H226.164C226.403 74.3807 226.804 73.767 227.366 73.3523C227.929 72.9318 228.576 72.7216 229.309 72.7216C229.491 72.7216 229.687 72.733 229.897 72.7557C230.108 72.7784 230.292 72.8097 230.451 72.8494V76.071C230.281 76.0199 230.045 75.9744 229.744 75.9347C229.443 75.8949 229.167 75.875 228.917 75.875C228.383 75.875 227.906 75.9915 227.486 76.2244C227.071 76.4517 226.741 76.7699 226.497 77.179C226.258 77.5881 226.139 78.0597 226.139 78.5938V86H222.508ZM232.529 86V72.9091H236.159V86H232.529ZM234.352 71.2216C233.813 71.2216 233.35 71.0426 232.963 70.6847C232.583 70.321 232.392 69.8864 232.392 69.3807C232.392 68.8807 232.583 68.4517 232.963 68.0938C233.35 67.7301 233.813 67.5483 234.352 67.5483C234.892 67.5483 235.352 67.7301 235.733 68.0938C236.119 68.4517 236.313 68.8807 236.313 69.3807C236.313 69.8864 236.119 70.321 235.733 70.6847C235.352 71.0426 234.892 71.2216 234.352 71.2216ZM250.16 76.642L246.836 76.8466C246.779 76.5625 246.657 76.3068 246.469 76.0795C246.282 75.8466 246.035 75.6619 245.728 75.5256C245.427 75.3835 245.066 75.3125 244.645 75.3125C244.083 75.3125 243.609 75.4318 243.222 75.6705C242.836 75.9034 242.643 76.2159 242.643 76.608C242.643 76.9205 242.768 77.1847 243.018 77.4006C243.268 77.6165 243.697 77.7898 244.305 77.9205L246.674 78.3977C247.947 78.6591 248.895 79.0795 249.52 79.6591C250.145 80.2386 250.458 81 250.458 81.9432C250.458 82.8011 250.205 83.554 249.699 84.2017C249.199 84.8494 248.512 85.3551 247.637 85.7188C246.768 86.0767 245.765 86.2557 244.628 86.2557C242.895 86.2557 241.515 85.8949 240.486 85.1733C239.464 84.446 238.864 83.4574 238.688 82.2074L242.259 82.0199C242.367 82.5483 242.628 82.9517 243.043 83.2301C243.458 83.5028 243.989 83.6392 244.637 83.6392C245.273 83.6392 245.785 83.517 246.171 83.2727C246.563 83.0227 246.762 82.7017 246.768 82.3097C246.762 81.9801 246.623 81.7102 246.35 81.5C246.077 81.2841 245.657 81.1193 245.089 81.0057L242.822 80.554C241.543 80.2983 240.591 79.8551 239.966 79.2244C239.347 78.5937 239.038 77.7898 239.038 76.8125C239.038 75.9716 239.265 75.2472 239.719 74.6392C240.18 74.0312 240.824 73.5625 241.654 73.233C242.489 72.9034 243.466 72.7386 244.586 72.7386C246.239 72.7386 247.54 73.0881 248.489 73.7869C249.444 74.4858 250.001 75.4375 250.16 76.642ZM255.066 86.2216C254.504 86.2216 254.021 86.0227 253.617 85.625C253.22 85.2216 253.021 84.7386 253.021 84.1761C253.021 83.6193 253.22 83.142 253.617 82.7443C254.021 82.3466 254.504 82.1477 255.066 82.1477C255.612 82.1477 256.089 82.3466 256.498 82.7443C256.907 83.142 257.112 83.6193 257.112 84.1761C257.112 84.5511 257.015 84.8949 256.822 85.2074C256.635 85.5142 256.387 85.7614 256.081 85.9489C255.774 86.1307 255.436 86.2216 255.066 86.2216ZM265.116 86.2131C264.122 86.2131 263.222 85.9574 262.415 85.446C261.614 84.929 260.977 84.1705 260.506 83.1705C260.04 82.1648 259.807 80.9318 259.807 79.4716C259.807 77.9716 260.048 76.7244 260.531 75.7301C261.014 74.7301 261.656 73.983 262.457 73.4886C263.264 72.9886 264.148 72.7386 265.108 72.7386C265.841 72.7386 266.452 72.8636 266.94 73.1136C267.435 73.358 267.832 73.6648 268.134 74.0341C268.44 74.3977 268.673 74.7557 268.832 75.108H268.943V68.5455H272.565V86H268.986V83.9034H268.832C268.662 84.267 268.42 84.6278 268.108 84.9858C267.801 85.3381 267.401 85.6307 266.906 85.8636C266.418 86.0966 265.821 86.2131 265.116 86.2131ZM266.267 83.3239C266.852 83.3239 267.347 83.1648 267.75 82.8466C268.159 82.5227 268.472 82.071 268.688 81.4915C268.909 80.9119 269.02 80.233 269.02 79.4545C269.02 78.6761 268.912 78 268.696 77.4261C268.48 76.8523 268.168 76.4091 267.759 76.0966C267.349 75.7841 266.852 75.6278 266.267 75.6278C265.67 75.6278 265.168 75.7898 264.759 76.1136C264.349 76.4375 264.04 76.8864 263.83 77.4602C263.619 78.0341 263.514 78.6989 263.514 79.4545C263.514 80.2159 263.619 80.8892 263.83 81.4744C264.045 82.054 264.355 82.5085 264.759 82.8381C265.168 83.1619 265.67 83.3239 266.267 83.3239ZM281.716 86.2557C280.37 86.2557 279.211 85.983 278.239 85.4375C277.273 84.8864 276.529 84.108 276.006 83.1023C275.483 82.0909 275.222 80.8949 275.222 79.5142C275.222 78.1676 275.483 76.9858 276.006 75.9688C276.529 74.9517 277.265 74.1591 278.213 73.5909C279.168 73.0227 280.287 72.7386 281.571 72.7386C282.435 72.7386 283.239 72.8778 283.983 73.1562C284.733 73.429 285.387 73.8409 285.944 74.392C286.506 74.9432 286.944 75.6364 287.256 76.4716C287.569 77.3011 287.725 78.2727 287.725 79.3864V80.3835H276.671V78.1335H284.307C284.307 77.6108 284.194 77.1477 283.966 76.7443C283.739 76.3409 283.424 76.0256 283.02 75.7983C282.623 75.5653 282.16 75.4489 281.631 75.4489C281.08 75.4489 280.591 75.5767 280.165 75.8324C279.745 76.0824 279.415 76.4205 279.177 76.8466C278.938 77.267 278.816 77.7358 278.81 78.2528V80.392C278.81 81.0398 278.929 81.5994 279.168 82.071C279.412 82.5426 279.756 82.9062 280.199 83.1619C280.642 83.4176 281.168 83.5455 281.776 83.5455C282.179 83.5455 282.549 83.4886 282.884 83.375C283.219 83.2614 283.506 83.0909 283.745 82.8636C283.983 82.6364 284.165 82.358 284.29 82.0284L287.648 82.25C287.478 83.0568 287.128 83.7614 286.6 84.3636C286.077 84.9602 285.401 85.4261 284.571 85.7614C283.748 86.0909 282.796 86.2557 281.716 86.2557ZM302.147 72.9091L297.57 86H293.48L288.903 72.9091H292.738L295.457 82.2756H295.593L298.303 72.9091H302.147Z" fill="#1C4D5D"/>
<path d="M531.186 365H532.758L537.24 350.781H535.316L532.172 361.377L531.957 362.09L531.752 361.396L528.627 350.781H526.693L531.186 365ZM540.194 354.434V356.006H543.788V363.438H540.194V365H549.042V363.438H545.595V354.434H540.194ZM543.554 351.66C543.554 351.953 543.641 352.197 543.817 352.393C543.999 352.588 544.273 352.686 544.637 352.686C544.996 352.686 545.266 352.588 545.448 352.393C545.63 352.197 545.721 351.953 545.721 351.66C545.721 351.497 545.695 351.348 545.643 351.211C545.591 351.074 545.513 350.96 545.409 350.869C545.324 350.785 545.217 350.719 545.087 350.674C544.957 350.622 544.807 350.596 544.637 350.596C544.468 350.596 544.315 350.622 544.179 350.674C544.048 350.719 543.941 350.785 543.856 350.869C543.752 350.967 543.674 351.084 543.622 351.221C543.576 351.357 543.554 351.504 543.554 351.66ZM559.144 362.197C559.144 362.367 559.112 362.526 559.046 362.676C558.981 362.826 558.887 362.962 558.763 363.086C558.561 363.288 558.282 363.447 557.923 363.564C557.565 363.675 557.145 363.73 556.664 363.73C556.358 363.73 556.048 363.698 555.736 363.633C555.423 363.568 555.14 363.457 554.886 363.301C554.626 363.145 554.408 362.939 554.232 362.686C554.063 362.432 553.965 362.119 553.939 361.748H552.132C552.132 362.197 552.233 362.63 552.435 363.047C552.643 363.464 552.943 363.828 553.334 364.141C553.718 364.46 554.19 364.717 554.75 364.912C555.31 365.101 555.948 365.195 556.664 365.195C557.289 365.195 557.865 365.12 558.392 364.971C558.92 364.821 559.372 364.609 559.75 364.336C560.127 364.062 560.42 363.734 560.629 363.35C560.843 362.965 560.951 362.539 560.951 362.07C560.951 361.634 560.856 361.25 560.668 360.918C560.485 360.586 560.218 360.293 559.867 360.039C559.515 359.792 559.082 359.58 558.568 359.404C558.054 359.222 557.471 359.062 556.82 358.926C556.325 358.828 555.915 358.727 555.589 358.623C555.27 358.519 555.017 358.402 554.828 358.271C554.632 358.141 554.496 357.995 554.418 357.832C554.339 357.669 554.3 357.484 554.3 357.275C554.3 357.074 554.349 356.878 554.447 356.689C554.545 356.501 554.691 356.335 554.886 356.191C555.075 356.048 555.313 355.934 555.599 355.85C555.892 355.765 556.231 355.723 556.615 355.723C556.986 355.723 557.318 355.775 557.611 355.879C557.91 355.983 558.164 356.12 558.373 356.289C558.581 356.458 558.744 356.654 558.861 356.875C558.978 357.09 559.037 357.311 559.037 357.539H560.843C560.843 357.077 560.742 356.647 560.541 356.25C560.345 355.846 560.065 355.495 559.701 355.195C559.336 354.896 558.893 354.661 558.373 354.492C557.852 354.323 557.266 354.238 556.615 354.238C556.009 354.238 555.453 354.32 554.945 354.482C554.444 354.645 554.011 354.867 553.646 355.146C553.282 355.426 552.998 355.755 552.796 356.133C552.595 356.504 552.494 356.904 552.494 357.334C552.494 357.77 552.591 358.154 552.787 358.486C552.982 358.812 553.259 359.095 553.617 359.336C553.968 359.583 554.392 359.795 554.886 359.971C555.388 360.146 555.941 360.296 556.546 360.42C557.041 360.518 557.455 360.628 557.787 360.752C558.119 360.869 558.386 360.999 558.587 361.143C558.789 361.286 558.933 361.445 559.017 361.621C559.102 361.79 559.144 361.982 559.144 362.197ZM564.618 354.434V356.006H568.211V363.438H564.618V365H573.465V363.438H570.018V354.434H564.618ZM567.977 351.66C567.977 351.953 568.065 352.197 568.241 352.393C568.423 352.588 568.696 352.686 569.061 352.686C569.419 352.686 569.689 352.588 569.871 352.393C570.054 352.197 570.145 351.953 570.145 351.66C570.145 351.497 570.119 351.348 570.067 351.211C570.015 351.074 569.937 350.96 569.832 350.869C569.748 350.785 569.64 350.719 569.51 350.674C569.38 350.622 569.23 350.596 569.061 350.596C568.892 350.596 568.739 350.622 568.602 350.674C568.472 350.719 568.364 350.785 568.28 350.869C568.176 350.967 568.097 351.084 568.045 351.221C568 351.357 567.977 351.504 567.977 351.66ZM580.823 351.875H579.007V354.434H576.234V355.83H579.007V361.572C579.007 362.223 579.092 362.78 579.261 363.242C579.437 363.698 579.674 364.069 579.974 364.355C580.273 364.648 580.625 364.863 581.029 365C581.439 365.13 581.878 365.195 582.347 365.195C582.627 365.195 582.907 365.182 583.187 365.156C583.473 365.13 583.743 365.091 583.997 365.039C584.251 364.993 584.486 364.938 584.7 364.873C584.915 364.801 585.098 364.72 585.247 364.629L584.993 363.35C584.883 363.376 584.739 363.408 584.564 363.447C584.394 363.48 584.212 363.512 584.017 363.545C583.815 363.577 583.61 363.607 583.402 363.633C583.193 363.652 582.991 363.662 582.796 363.662C582.529 363.662 582.275 363.63 582.034 363.564C581.8 363.499 581.592 363.385 581.409 363.223C581.227 363.066 581.084 362.855 580.98 362.588C580.876 362.321 580.823 361.982 580.823 361.572V355.83H584.847V354.434H580.823V351.875ZM601.8 354.434H600.179V365H601.897V356.592C601.936 356.488 601.985 356.39 602.044 356.299C602.109 356.208 602.184 356.126 602.268 356.055C602.379 355.964 602.512 355.895 602.669 355.85C602.832 355.798 603.02 355.771 603.235 355.771C603.43 355.771 603.6 355.798 603.743 355.85C603.893 355.895 604.016 355.97 604.114 356.074C604.218 356.185 604.293 356.325 604.339 356.494C604.391 356.663 604.417 356.859 604.417 357.08V365H606.136V357.09C606.136 357.051 606.136 357.018 606.136 356.992C606.136 356.96 606.136 356.927 606.136 356.895C606.155 356.732 606.194 356.585 606.253 356.455C606.311 356.318 606.393 356.198 606.497 356.094C606.601 355.996 606.731 355.918 606.887 355.859C607.044 355.801 607.229 355.771 607.444 355.771C607.646 355.771 607.822 355.798 607.971 355.85C608.128 355.902 608.258 355.98 608.362 356.084C608.46 356.195 608.535 356.335 608.587 356.504C608.639 356.673 608.665 356.868 608.665 357.09V365H610.384V357.109C610.384 356.602 610.325 356.162 610.208 355.791C610.091 355.413 609.921 355.107 609.7 354.873C609.498 354.665 609.251 354.508 608.958 354.404C608.665 354.294 608.336 354.238 607.971 354.238C607.705 354.245 607.457 354.281 607.229 354.346C607.008 354.411 606.806 354.499 606.624 354.609C606.481 354.707 606.347 354.821 606.223 354.951C606.1 355.081 605.992 355.221 605.901 355.371C605.83 355.208 605.742 355.062 605.637 354.932C605.54 354.801 605.429 354.691 605.305 354.6C605.136 354.482 604.938 354.395 604.71 354.336C604.488 354.271 604.238 354.238 603.958 354.238C603.463 354.245 603.04 354.352 602.688 354.561C602.343 354.769 602.063 355.059 601.848 355.43L601.8 354.434ZM614.031 369.268C614.506 369.268 614.926 369.18 615.291 369.004C615.655 368.828 615.974 368.61 616.248 368.35C616.521 368.089 616.752 367.806 616.941 367.5C617.136 367.194 617.296 366.904 617.42 366.631L622.781 354.434H620.759L618.035 361.289L617.537 362.529L617.068 361.25L614.168 354.434H612.146L616.697 364.502L615.974 365.908C615.909 366.038 615.818 366.204 615.701 366.406C615.59 366.608 615.457 366.803 615.3 366.992C615.138 367.181 614.952 367.344 614.744 367.48C614.542 367.617 614.317 367.686 614.07 367.686C613.979 367.686 613.852 367.679 613.689 367.666C613.533 367.66 613.373 367.65 613.211 367.637L612.918 369.111C613.035 369.137 613.207 369.17 613.435 369.209C613.663 369.248 613.862 369.268 614.031 369.268ZM638.62 365H640.046L641.677 358.525L641.941 356.885L642.214 358.525L643.864 365H645.29L647.536 354.434H645.935L644.763 361.172L644.499 362.832L644.216 361.172L642.536 354.434H641.374L639.685 361.172L639.421 362.686L639.206 361.172L637.976 354.434H636.374L638.62 365ZM654.484 365.195C655.513 365.195 656.376 364.99 657.072 364.58C657.775 364.163 658.303 363.688 658.654 363.154L657.551 362.295C657.219 362.725 656.802 363.07 656.301 363.33C655.799 363.59 655.227 363.721 654.582 363.721C654.094 363.721 653.648 363.63 653.244 363.447C652.84 363.265 652.495 363.014 652.209 362.695C651.929 362.396 651.708 362.051 651.545 361.66C651.389 361.27 651.288 360.817 651.242 360.303V360.234H658.791V359.424C658.791 358.688 658.697 358.005 658.508 357.373C658.326 356.742 658.046 356.191 657.668 355.723C657.29 355.26 656.815 354.899 656.242 354.639C655.676 354.372 655.012 354.238 654.25 354.238C653.645 354.238 653.052 354.362 652.473 354.609C651.9 354.857 651.389 355.212 650.939 355.674C650.484 356.143 650.119 356.715 649.846 357.393C649.572 358.063 649.436 358.825 649.436 359.678V360.088C649.436 360.824 649.559 361.504 649.807 362.129C650.054 362.754 650.399 363.294 650.842 363.75C651.285 364.206 651.815 364.561 652.434 364.814C653.059 365.068 653.742 365.195 654.484 365.195ZM654.25 355.723C654.712 355.723 655.109 355.807 655.441 355.977C655.78 356.146 656.06 356.367 656.281 356.641C656.503 356.914 656.675 357.24 656.799 357.617C656.923 357.988 656.984 358.337 656.984 358.662V358.75H651.301C651.372 358.262 651.496 357.832 651.672 357.461C651.854 357.083 652.076 356.764 652.336 356.504C652.596 356.25 652.889 356.058 653.215 355.928C653.54 355.791 653.885 355.723 654.25 355.723ZM670.983 359.834V359.629C670.983 359.076 670.938 358.551 670.846 358.057C670.755 357.555 670.622 357.1 670.446 356.689C670.277 356.325 670.082 355.996 669.86 355.703C669.639 355.404 669.388 355.15 669.108 354.941C668.796 354.72 668.447 354.548 668.063 354.424C667.679 354.3 667.259 354.238 666.804 354.238C666.439 354.238 666.1 354.274 665.788 354.346C665.475 354.417 665.189 354.521 664.929 354.658C664.72 354.769 664.525 354.902 664.343 355.059C664.16 355.208 663.994 355.378 663.845 355.566V350H662.038V365H663.698L663.786 363.799C663.903 363.949 664.027 364.085 664.157 364.209C664.287 364.333 664.424 364.447 664.567 364.551C664.867 364.759 665.202 364.919 665.573 365.029C665.951 365.14 666.367 365.195 666.823 365.195C667.22 365.195 667.588 365.146 667.927 365.049C668.272 364.951 668.587 364.814 668.874 364.639C669.271 364.385 669.61 364.066 669.889 363.682C670.176 363.291 670.407 362.852 670.583 362.363C670.713 361.992 670.811 361.595 670.876 361.172C670.947 360.742 670.983 360.296 670.983 359.834ZM669.177 359.629V359.834C669.177 360.146 669.157 360.452 669.118 360.752C669.079 361.051 669.017 361.331 668.932 361.592C668.828 361.937 668.688 362.249 668.512 362.529C668.337 362.809 668.119 363.04 667.858 363.223C667.663 363.366 667.442 363.477 667.194 363.555C666.947 363.626 666.673 363.662 666.374 363.662C666.061 363.662 665.775 363.623 665.514 363.545C665.254 363.46 665.02 363.343 664.811 363.193C664.603 363.044 664.417 362.871 664.255 362.676C664.098 362.474 663.962 362.256 663.845 362.021V357.402C663.955 357.168 664.089 356.953 664.245 356.758C664.408 356.556 664.593 356.38 664.802 356.23C665.003 356.087 665.235 355.977 665.495 355.898C665.755 355.814 666.042 355.771 666.354 355.771C666.641 355.771 666.901 355.804 667.136 355.869C667.37 355.934 667.582 356.025 667.77 356.143C668.044 356.305 668.275 356.53 668.464 356.816C668.652 357.103 668.805 357.419 668.923 357.764C669.007 358.044 669.069 358.343 669.108 358.662C669.154 358.975 669.177 359.297 669.177 359.629ZM681.261 362.197C681.261 362.367 681.229 362.526 681.164 362.676C681.099 362.826 681.004 362.962 680.88 363.086C680.679 363.288 680.399 363.447 680.041 363.564C679.683 363.675 679.263 363.73 678.781 363.73C678.475 363.73 678.166 363.698 677.853 363.633C677.541 363.568 677.257 363.457 677.004 363.301C676.743 363.145 676.525 362.939 676.349 362.686C676.18 362.432 676.082 362.119 676.056 361.748H674.25C674.25 362.197 674.351 362.63 674.552 363.047C674.761 363.464 675.06 363.828 675.451 364.141C675.835 364.46 676.307 364.717 676.867 364.912C677.427 365.101 678.065 365.195 678.781 365.195C679.406 365.195 679.982 365.12 680.509 364.971C681.037 364.821 681.489 364.609 681.867 364.336C682.244 364.062 682.537 363.734 682.746 363.35C682.961 362.965 683.068 362.539 683.068 362.07C683.068 361.634 682.974 361.25 682.785 360.918C682.602 360.586 682.336 360.293 681.984 360.039C681.632 359.792 681.199 359.58 680.685 359.404C680.171 359.222 679.588 359.062 678.937 358.926C678.442 358.828 678.032 358.727 677.707 358.623C677.388 358.519 677.134 358.402 676.945 358.271C676.75 358.141 676.613 357.995 676.535 357.832C676.457 357.669 676.418 357.484 676.418 357.275C676.418 357.074 676.466 356.878 676.564 356.689C676.662 356.501 676.808 356.335 677.004 356.191C677.192 356.048 677.43 355.934 677.716 355.85C678.009 355.765 678.348 355.723 678.732 355.723C679.103 355.723 679.435 355.775 679.728 355.879C680.028 355.983 680.282 356.12 680.49 356.289C680.698 356.458 680.861 356.654 680.978 356.875C681.095 357.09 681.154 357.311 681.154 357.539H682.961C682.961 357.077 682.86 356.647 682.658 356.25C682.462 355.846 682.183 355.495 681.818 355.195C681.453 354.896 681.011 354.661 680.49 354.492C679.969 354.323 679.383 354.238 678.732 354.238C678.127 354.238 677.57 354.32 677.062 354.482C676.561 354.645 676.128 354.867 675.763 355.146C675.399 355.426 675.115 355.755 674.914 356.133C674.712 356.504 674.611 356.904 674.611 357.334C674.611 357.77 674.709 358.154 674.904 358.486C675.099 358.812 675.376 359.095 675.734 359.336C676.086 359.583 676.509 359.795 677.004 359.971C677.505 360.146 678.058 360.296 678.664 360.42C679.158 360.518 679.572 360.628 679.904 360.752C680.236 360.869 680.503 360.999 680.705 361.143C680.907 361.286 681.05 361.445 681.134 361.621C681.219 361.79 681.261 361.982 681.261 362.197ZM686.735 354.434V356.006H690.329V363.438H686.735V365H695.582V363.438H692.135V354.434H686.735ZM690.094 351.66C690.094 351.953 690.182 352.197 690.358 352.393C690.54 352.588 690.814 352.686 691.178 352.686C691.536 352.686 691.806 352.588 691.989 352.393C692.171 352.197 692.262 351.953 692.262 351.66C692.262 351.497 692.236 351.348 692.184 351.211C692.132 351.074 692.054 350.96 691.95 350.869C691.865 350.785 691.758 350.719 691.627 350.674C691.497 350.622 691.347 350.596 691.178 350.596C691.009 350.596 690.856 350.622 690.719 350.674C690.589 350.719 690.482 350.785 690.397 350.869C690.293 350.967 690.215 351.084 690.163 351.221C690.117 351.357 690.094 351.504 690.094 351.66ZM702.941 351.875H701.124V354.434H698.351V355.83H701.124V361.572C701.124 362.223 701.209 362.78 701.378 363.242C701.554 363.698 701.792 364.069 702.091 364.355C702.39 364.648 702.742 364.863 703.146 365C703.556 365.13 703.995 365.195 704.464 365.195C704.744 365.195 705.024 365.182 705.304 365.156C705.59 365.13 705.861 365.091 706.114 365.039C706.368 364.993 706.603 364.938 706.818 364.873C707.032 364.801 707.215 364.72 707.364 364.629L707.111 363.35C707 363.376 706.857 363.408 706.681 363.447C706.512 363.48 706.329 363.512 706.134 363.545C705.932 363.577 705.727 363.607 705.519 363.633C705.31 363.652 705.109 363.662 704.913 363.662C704.646 363.662 704.392 363.63 704.152 363.564C703.917 363.499 703.709 363.385 703.527 363.223C703.344 363.066 703.201 362.855 703.097 362.588C702.993 362.321 702.941 361.982 702.941 361.572V355.83H706.964V354.434H702.941V351.875ZM715.543 365.195C716.572 365.195 717.434 364.99 718.131 364.58C718.834 364.163 719.361 363.688 719.713 363.154L718.609 362.295C718.277 362.725 717.861 363.07 717.359 363.33C716.858 363.59 716.285 363.721 715.641 363.721C715.152 363.721 714.706 363.63 714.303 363.447C713.899 363.265 713.554 363.014 713.268 362.695C712.988 362.396 712.766 362.051 712.604 361.66C712.447 361.27 712.346 360.817 712.301 360.303V360.234H719.85V359.424C719.85 358.688 719.755 358.005 719.566 357.373C719.384 356.742 719.104 356.191 718.727 355.723C718.349 355.26 717.874 354.899 717.301 354.639C716.734 354.372 716.07 354.238 715.309 354.238C714.703 354.238 714.111 354.362 713.531 354.609C712.958 354.857 712.447 355.212 711.998 355.674C711.542 356.143 711.178 356.715 710.904 357.393C710.631 358.063 710.494 358.825 710.494 359.678V360.088C710.494 360.824 710.618 361.504 710.865 362.129C711.113 362.754 711.458 363.294 711.9 363.75C712.343 364.206 712.874 364.561 713.492 364.814C714.117 365.068 714.801 365.195 715.543 365.195ZM715.309 355.723C715.771 355.723 716.168 355.807 716.5 355.977C716.839 356.146 717.118 356.367 717.34 356.641C717.561 356.914 717.734 357.24 717.857 357.617C717.981 357.988 718.043 358.337 718.043 358.662V358.75H712.359C712.431 358.262 712.555 357.832 712.73 357.461C712.913 357.083 713.134 356.764 713.395 356.504C713.655 356.25 713.948 356.058 714.273 355.928C714.599 355.791 714.944 355.723 715.309 355.723ZM728.126 360.4V350.781H726.309V360.4H728.126ZM726.134 364.053C726.134 364.352 726.225 364.603 726.407 364.805C726.596 365.007 726.876 365.107 727.247 365.107C727.618 365.107 727.898 365.007 728.087 364.805C728.282 364.603 728.38 364.352 728.38 364.053C728.38 363.74 728.282 363.48 728.087 363.271C727.898 363.063 727.618 362.959 727.247 362.959C726.876 362.959 726.596 363.063 726.407 363.271C726.225 363.48 726.134 363.74 726.134 364.053Z" fill="#334155"/>
<path d="M625.167 322C625.167 324.946 627.554 327.333 630.5 327.333C633.446 327.333 635.833 324.946 635.833 322C635.833 319.054 633.446 316.667 630.5 316.667C627.554 316.667 625.167 319.054 625.167 322ZM733.279 181.628C733.625 181.198 733.558 180.568 733.128 180.221L726.12 174.574C725.69 174.227 725.061 174.295 724.714 174.725C724.367 175.155 724.435 175.784 724.865 176.131L731.094 181.151L726.074 187.38C725.727 187.81 725.795 188.439 726.225 188.786C726.655 189.133 727.284 189.065 727.631 188.635L733.279 181.628ZM631.484 321.824C622.383 270.826 624.163 238.533 639.752 217.685C655.339 196.841 684.975 187.112 732.607 181.994L732.393 180.006C684.766 185.123 654.3 194.892 638.151 216.488C622.004 238.08 620.413 271.169 629.516 322.176L631.484 321.824Z" fill="#334155"/>
</g>
<rect x="0.5" y="0.5" width="1501" height="501" rx="32.5" stroke="#E2E8F0"/>
<defs>
<filter id="filter0_f_201_66" x="-114.097" y="-297.531" width="687.694" height="739.372" filterUnits="userSpaceOnUse" color-interpolation-filters="sRGB">
<feFlood flood-opacity="0" result="BackgroundImageFix"/>
<feBlend mode="normal" in="SourceGraphic" in2="BackgroundImageFix" result="shape"/>
<feGaussianBlur stdDeviation="48.888" result="effect1_foregroundBlur_201_66"/>
</filter>
<filter id="filter1_f_201_66" x="400.292" y="178.194" width="541.094" height="578.974" filterUnits="userSpaceOnUse" color-interpolation-filters="sRGB">
<feFlood flood-opacity="0" result="BackgroundImageFix"/>
<feBlend mode="normal" in="SourceGraphic" in2="BackgroundImageFix" result="shape"/>
<feGaussianBlur stdDeviation="39.1104" result="effect1_foregroundBlur_201_66"/>
</filter>
<filter id="filter2_f_201_66" x="-241.749" y="-165.454" width="755.167" height="817.356" filterUnits="userSpaceOnUse" color-interpolation-filters="sRGB">
<feFlood flood-opacity="0" result="BackgroundImageFix"/>
<feBlend mode="normal" in="SourceGraphic" in2="BackgroundImageFix" result="shape"/>
<feGaussianBlur stdDeviation="54.7546" result="effect1_foregroundBlur_201_66"/>
</filter>
<linearGradient id="paint0_linear_201_66" x1="0" y1="188.083" x2="358.892" y2="188.083" gradientUnits="userSpaceOnUse">
<stop stop-color="#8BFEE9" stop-opacity="0.4"/>
<stop offset="0.614583" stop-color="#00C1FE" stop-opacity="0.3"/>
<stop offset="1" stop-color="#A2F2FB" stop-opacity="0.2"/>
</linearGradient>
<linearGradient id="paint1_linear_201_66" x1="0" y1="141.313" x2="305.152" y2="141.313" gradientUnits="userSpaceOnUse">
<stop stop-color="#8BFEE9" stop-opacity="0.4"/>
<stop offset="0.614583" stop-color="#00C1FE" stop-opacity="0.3"/>
<stop offset="1" stop-color="#A2F2FB" stop-opacity="0.2"/>
</linearGradient>
<linearGradient id="paint2_linear_201_66" x1="0" y1="204.503" x2="414.469" y2="204.503" gradientUnits="userSpaceOnUse">
<stop stop-color="#8BFEE9" stop-opacity="0.4"/>
<stop offset="0.614583" stop-color="#00C1FE" stop-opacity="0.3"/>
<stop offset="1" stop-color="#A2F2FB" stop-opacity="0.2"/>
</linearGradient>
<clipPath id="clip0_201_66">
<rect x="1" y="1" width="1500" height="500" rx="32" fill="white"/>
</clipPath>
</defs>
</svg>
