<svg width="1500" height="500" viewBox="0 0 1500 500" fill="none" xmlns="http://www.w3.org/2000/svg">
<g clip-path="url(#clip0_201_55)">
<rect width="1500" height="500" rx="32" fill="#0F172A"/>
<path d="M69.5426 162H62.9517L72.9943 132.909H80.9205L90.9489 162H84.358L77.071 139.557H76.8438L69.5426 162ZM69.1307 150.565H84.6989V155.366H69.1307V150.565ZM503.846 162V132.909H509.897V143.847H510.081C510.347 143.259 510.73 142.663 511.232 142.057C511.743 141.441 512.406 140.93 513.221 140.523C514.044 140.106 515.067 139.898 516.289 139.898C517.88 139.898 519.348 140.314 520.692 141.148C522.037 141.972 523.112 143.217 523.917 144.884C524.722 146.541 525.124 148.619 525.124 151.119C525.124 153.553 524.731 155.608 523.945 157.284C523.169 158.951 522.108 160.215 520.763 161.077C519.428 161.929 517.932 162.355 516.275 162.355C515.1 162.355 514.101 162.161 513.277 161.773C512.463 161.384 511.795 160.897 511.275 160.31C510.754 159.713 510.356 159.112 510.081 158.506H509.812V162H503.846ZM509.769 151.091C509.769 152.388 509.949 153.52 510.309 154.486C510.669 155.452 511.189 156.205 511.871 156.744C512.553 157.275 513.382 157.54 514.357 157.54C515.342 157.54 516.175 157.27 516.857 156.73C517.539 156.181 518.055 155.423 518.405 154.457C518.765 153.482 518.945 152.36 518.945 151.091C518.945 149.831 518.77 148.723 518.419 147.767C518.069 146.811 517.553 146.062 516.871 145.523C516.189 144.983 515.351 144.713 514.357 144.713C513.372 144.713 512.539 144.973 511.857 145.494C511.185 146.015 510.669 146.754 510.309 147.71C509.949 148.667 509.769 149.794 509.769 151.091ZM537.401 162.355C535.744 162.355 534.243 161.929 532.899 161.077C531.563 160.215 530.503 158.951 529.717 157.284C528.94 155.608 528.552 153.553 528.552 151.119C528.552 148.619 528.954 146.541 529.759 144.884C530.564 143.217 531.634 141.972 532.97 141.148C534.314 140.314 535.787 139.898 537.387 139.898C538.609 139.898 539.627 140.106 540.441 140.523C541.265 140.93 541.928 141.441 542.43 142.057C542.941 142.663 543.329 143.259 543.595 143.847H543.779V140.182H549.816V162H543.85V158.506H543.595C543.311 159.112 542.908 159.713 542.387 160.31C541.876 160.897 541.208 161.384 540.384 161.773C539.57 162.161 538.576 162.355 537.401 162.355ZM539.319 157.54C540.294 157.54 541.118 157.275 541.791 156.744C542.472 156.205 542.993 155.452 543.353 154.486C543.722 153.52 543.907 152.388 543.907 151.091C543.907 149.794 543.727 148.667 543.367 147.71C543.007 146.754 542.487 146.015 541.805 145.494C541.123 144.973 540.294 144.713 539.319 144.713C538.325 144.713 537.487 144.983 536.805 145.523C536.123 146.062 535.607 146.811 535.257 147.767C534.906 148.723 534.731 149.831 534.731 151.091C534.731 152.36 534.906 153.482 535.257 154.457C535.616 155.423 536.132 156.181 536.805 156.73C537.487 157.27 538.325 157.54 539.319 157.54ZM573.145 146.403L567.605 146.744C567.51 146.271 567.307 145.845 566.994 145.466C566.682 145.078 566.27 144.77 565.758 144.543C565.256 144.306 564.655 144.188 563.954 144.188C563.017 144.188 562.226 144.386 561.582 144.784C560.938 145.172 560.616 145.693 560.616 146.347C560.616 146.867 560.825 147.308 561.241 147.668C561.658 148.027 562.373 148.316 563.386 148.534L567.335 149.33C569.456 149.765 571.038 150.466 572.079 151.432C573.121 152.398 573.642 153.667 573.642 155.239C573.642 156.669 573.221 157.923 572.378 159.003C571.544 160.082 570.399 160.925 568.94 161.531C567.491 162.128 565.82 162.426 563.926 162.426C561.038 162.426 558.737 161.825 557.023 160.622C555.318 159.41 554.319 157.762 554.025 155.679L559.977 155.366C560.157 156.247 560.593 156.92 561.284 157.384C561.975 157.838 562.861 158.065 563.94 158.065C565.001 158.065 565.853 157.862 566.497 157.455C567.15 157.038 567.482 156.503 567.491 155.849C567.482 155.3 567.25 154.85 566.795 154.5C566.341 154.14 565.64 153.866 564.693 153.676L560.915 152.923C558.784 152.497 557.198 151.759 556.156 150.707C555.124 149.656 554.608 148.316 554.608 146.688C554.608 145.286 554.987 144.079 555.744 143.065C556.511 142.052 557.586 141.271 558.969 140.722C560.361 140.172 561.989 139.898 563.855 139.898C566.611 139.898 568.779 140.48 570.361 141.645C571.952 142.81 572.88 144.396 573.145 146.403ZM587.595 162.426C585.351 162.426 583.419 161.972 581.8 161.062C580.19 160.144 578.95 158.847 578.078 157.17C577.207 155.485 576.772 153.491 576.772 151.19C576.772 148.946 577.207 146.976 578.078 145.281C578.95 143.586 580.176 142.265 581.757 141.318C583.348 140.371 585.214 139.898 587.354 139.898C588.793 139.898 590.133 140.13 591.374 140.594C592.624 141.048 593.713 141.735 594.641 142.653C595.578 143.572 596.308 144.727 596.828 146.119C597.349 147.502 597.61 149.121 597.61 150.977V152.639H579.186V148.889H591.914C591.914 148.018 591.724 147.246 591.345 146.574C590.967 145.902 590.441 145.376 589.769 144.997C589.106 144.609 588.334 144.415 587.453 144.415C586.535 144.415 585.72 144.628 585.01 145.054C584.309 145.471 583.76 146.034 583.362 146.744C582.965 147.445 582.761 148.226 582.752 149.088V152.653C582.752 153.733 582.951 154.666 583.348 155.452C583.755 156.238 584.328 156.844 585.067 157.27C585.806 157.696 586.682 157.909 587.695 157.909C588.367 157.909 588.983 157.814 589.541 157.625C590.1 157.436 590.578 157.152 590.976 156.773C591.374 156.394 591.677 155.93 591.885 155.381L597.482 155.75C597.198 157.095 596.615 158.269 595.735 159.273C594.863 160.267 593.737 161.044 592.354 161.602C590.981 162.152 589.395 162.426 587.595 162.426ZM609.798 162.355C608.141 162.355 606.64 161.929 605.295 161.077C603.96 160.215 602.9 158.951 602.114 157.284C601.337 155.608 600.949 153.553 600.949 151.119C600.949 148.619 601.351 146.541 602.156 144.884C602.961 143.217 604.031 141.972 605.366 141.148C606.711 140.314 608.184 139.898 609.784 139.898C611.006 139.898 612.024 140.106 612.838 140.523C613.662 140.93 614.325 141.441 614.827 142.057C615.338 142.663 615.726 143.259 615.991 143.847H616.176V132.909H622.213V162H616.247V158.506H615.991C615.707 159.112 615.305 159.713 614.784 160.31C614.273 160.897 613.605 161.384 612.781 161.773C611.967 162.161 610.973 162.355 609.798 162.355ZM611.716 157.54C612.691 157.54 613.515 157.275 614.188 156.744C614.869 156.205 615.39 155.452 615.75 154.486C616.119 153.52 616.304 152.388 616.304 151.091C616.304 149.794 616.124 148.667 615.764 147.71C615.404 146.754 614.884 146.015 614.202 145.494C613.52 144.973 612.691 144.713 611.716 144.713C610.722 144.713 609.884 144.983 609.202 145.523C608.52 146.062 608.004 146.811 607.653 147.767C607.303 148.723 607.128 149.831 607.128 151.091C607.128 152.36 607.303 153.482 607.653 154.457C608.013 155.423 608.529 156.181 609.202 156.73C609.884 157.27 610.722 157.54 611.716 157.54ZM636.846 162V140.182H642.897V162H636.846ZM639.886 137.369C638.986 137.369 638.214 137.071 637.57 136.474C636.936 135.868 636.619 135.144 636.619 134.301C636.619 133.468 636.936 132.753 637.57 132.156C638.214 131.55 638.986 131.247 639.886 131.247C640.785 131.247 641.552 131.55 642.187 132.156C642.831 132.753 643.153 133.468 643.153 134.301C643.153 135.144 642.831 135.868 642.187 136.474C641.552 137.071 640.785 137.369 639.886 137.369ZM653.996 149.386V162H647.944V140.182H653.711V144.031H653.967C654.45 142.762 655.26 141.759 656.396 141.02C657.533 140.272 658.91 139.898 660.53 139.898C662.045 139.898 663.366 140.229 664.493 140.892C665.62 141.555 666.496 142.502 667.121 143.733C667.746 144.955 668.058 146.413 668.058 148.108V162H662.007V149.188C662.016 147.852 661.675 146.811 660.984 146.062C660.293 145.305 659.341 144.926 658.129 144.926C657.315 144.926 656.595 145.101 655.97 145.452C655.354 145.802 654.872 146.313 654.521 146.986C654.18 147.649 654.005 148.449 653.996 149.386ZM64.5284 210V180.909H76.1761C78.3163 180.909 80.1013 181.226 81.5312 181.861C82.9612 182.495 84.036 183.376 84.7557 184.503C85.4754 185.62 85.8352 186.908 85.8352 188.366C85.8352 189.503 85.608 190.502 85.1534 191.364C84.6989 192.216 84.0739 192.917 83.2784 193.466C82.4924 194.006 81.5928 194.389 80.5795 194.616V194.901C81.6875 194.948 82.7244 195.26 83.6903 195.838C84.6657 196.416 85.4564 197.225 86.0625 198.267C86.6686 199.299 86.9716 200.53 86.9716 201.96C86.9716 203.504 86.5881 204.882 85.821 206.094C85.0634 207.296 83.9413 208.248 82.4545 208.949C80.9678 209.65 79.1354 210 76.9574 210H64.5284ZM70.679 204.972H75.6932C77.4072 204.972 78.6572 204.645 79.4432 203.991C80.2292 203.329 80.6222 202.448 80.6222 201.349C80.6222 200.545 80.428 199.834 80.0398 199.219C79.6515 198.603 79.0975 198.12 78.3778 197.77C77.6676 197.42 76.8201 197.244 75.8352 197.244H70.679V204.972ZM70.679 193.082H75.2386C76.0814 193.082 76.8295 192.936 77.483 192.642C78.1458 192.339 78.6667 191.913 79.0455 191.364C79.4337 190.814 79.6278 190.156 79.6278 189.389C79.6278 188.338 79.2538 187.491 78.5057 186.847C77.767 186.203 76.7159 185.881 75.3523 185.881H70.679V193.082ZM100.918 210.426C98.7116 210.426 96.8035 209.957 95.1936 209.02C93.5932 208.073 92.3574 206.757 91.4862 205.071C90.615 203.376 90.1794 201.411 90.1794 199.176C90.1794 196.922 90.615 194.953 91.4862 193.267C92.3574 191.572 93.5932 190.256 95.1936 189.318C96.8035 188.371 98.7116 187.898 100.918 187.898C103.124 187.898 105.028 188.371 106.628 189.318C108.238 190.256 109.479 191.572 110.35 193.267C111.221 194.953 111.657 196.922 111.657 199.176C111.657 201.411 111.221 203.376 110.35 205.071C109.479 206.757 108.238 208.073 106.628 209.02C105.028 209.957 103.124 210.426 100.918 210.426ZM100.946 205.739C101.95 205.739 102.788 205.455 103.461 204.886C104.133 204.309 104.64 203.523 104.981 202.528C105.331 201.534 105.506 200.402 105.506 199.134C105.506 197.865 105.331 196.733 104.981 195.739C104.64 194.744 104.133 193.958 103.461 193.381C102.788 192.803 101.95 192.514 100.946 192.514C99.9332 192.514 99.0809 192.803 98.3896 193.381C97.7078 193.958 97.1917 194.744 96.8413 195.739C96.5004 196.733 96.33 197.865 96.33 199.134C96.33 200.402 96.5004 201.534 96.8413 202.528C97.1917 203.523 97.7078 204.309 98.3896 204.886C99.0809 205.455 99.9332 205.739 100.946 205.739ZM125.621 218.636C123.661 218.636 121.98 218.366 120.578 217.827C119.186 217.296 118.078 216.572 117.254 215.653C116.431 214.735 115.896 213.703 115.649 212.557L121.246 211.804C121.416 212.24 121.686 212.647 122.056 213.026C122.425 213.404 122.913 213.707 123.519 213.935C124.134 214.171 124.882 214.29 125.763 214.29C127.079 214.29 128.163 213.968 129.016 213.324C129.878 212.689 130.308 211.624 130.308 210.128V206.136H130.053C129.788 206.742 129.39 207.315 128.86 207.855C128.329 208.395 127.647 208.835 126.814 209.176C125.981 209.517 124.986 209.688 123.831 209.688C122.193 209.688 120.701 209.309 119.357 208.551C118.021 207.784 116.956 206.615 116.161 205.043C115.375 203.461 114.982 201.463 114.982 199.048C114.982 196.577 115.384 194.512 116.189 192.855C116.994 191.198 118.064 189.957 119.399 189.134C120.744 188.31 122.217 187.898 123.817 187.898C125.038 187.898 126.061 188.106 126.885 188.523C127.709 188.93 128.372 189.441 128.874 190.057C129.385 190.663 129.778 191.259 130.053 191.847H130.28V188.182H136.288V210.213C136.288 212.069 135.834 213.622 134.925 214.872C134.016 216.122 132.756 217.06 131.146 217.685C129.546 218.319 127.704 218.636 125.621 218.636ZM125.749 205.142C126.724 205.142 127.548 204.901 128.22 204.418C128.902 203.925 129.423 203.224 129.783 202.315C130.152 201.397 130.337 200.298 130.337 199.02C130.337 197.741 130.157 196.634 129.797 195.696C129.437 194.749 128.916 194.015 128.235 193.494C127.553 192.973 126.724 192.713 125.749 192.713C124.754 192.713 123.916 192.983 123.235 193.523C122.553 194.053 122.037 194.792 121.686 195.739C121.336 196.686 121.161 197.779 121.161 199.02C121.161 200.279 121.336 201.368 121.686 202.287C122.046 203.196 122.562 203.902 123.235 204.403C123.916 204.896 124.754 205.142 125.749 205.142ZM151.162 210.426C148.955 210.426 147.047 209.957 145.437 209.02C143.837 208.073 142.601 206.757 141.73 205.071C140.859 203.376 140.423 201.411 140.423 199.176C140.423 196.922 140.859 194.953 141.73 193.267C142.601 191.572 143.837 190.256 145.437 189.318C147.047 188.371 148.955 187.898 151.162 187.898C153.368 187.898 155.272 188.371 156.872 189.318C158.482 190.256 159.722 191.572 160.594 193.267C161.465 194.953 161.9 196.922 161.9 199.176C161.9 201.411 161.465 203.376 160.594 205.071C159.722 206.757 158.482 208.073 156.872 209.02C155.272 209.957 153.368 210.426 151.162 210.426ZM151.19 205.739C152.194 205.739 153.032 205.455 153.704 204.886C154.377 204.309 154.883 203.523 155.224 202.528C155.575 201.534 155.75 200.402 155.75 199.134C155.75 197.865 155.575 196.733 155.224 195.739C154.883 194.744 154.377 193.958 153.704 193.381C153.032 192.803 152.194 192.514 151.19 192.514C150.177 192.514 149.325 192.803 148.633 193.381C147.952 193.958 147.435 194.744 147.085 195.739C146.744 196.733 146.574 197.865 146.574 199.134C146.574 200.402 146.744 201.534 147.085 202.528C147.435 203.523 147.952 204.309 148.633 204.886C149.325 205.455 150.177 205.739 151.19 205.739ZM166.035 210V188.182H171.902V191.989H172.129C172.527 190.634 173.194 189.612 174.132 188.92C175.069 188.22 176.149 187.869 177.37 187.869C177.673 187.869 178 187.888 178.35 187.926C178.701 187.964 179.009 188.016 179.274 188.082V193.452C178.99 193.366 178.597 193.291 178.095 193.224C177.593 193.158 177.134 193.125 176.717 193.125C175.827 193.125 175.031 193.319 174.331 193.707C173.639 194.086 173.09 194.616 172.683 195.298C172.285 195.98 172.086 196.766 172.086 197.656V210H166.035ZM192.174 210V180.909H203.651C205.848 180.909 207.723 181.302 209.276 182.088C210.838 182.865 212.027 183.968 212.841 185.398C213.665 186.818 214.077 188.49 214.077 190.412C214.077 192.344 213.66 194.006 212.827 195.398C211.994 196.78 210.786 197.841 209.205 198.58C207.633 199.318 205.73 199.688 203.495 199.688H195.81V194.744H202.5C203.675 194.744 204.65 194.583 205.427 194.261C206.203 193.939 206.781 193.456 207.16 192.812C207.548 192.169 207.742 191.368 207.742 190.412C207.742 189.446 207.548 188.632 207.16 187.969C206.781 187.306 206.198 186.804 205.412 186.463C204.636 186.113 203.656 185.938 202.472 185.938H198.324V210H192.174ZM207.884 196.761L215.114 210H208.324L201.25 196.761H207.884ZM228.102 210.426C225.857 210.426 223.926 209.972 222.306 209.062C220.696 208.144 219.456 206.847 218.585 205.17C217.713 203.485 217.278 201.491 217.278 199.19C217.278 196.946 217.713 194.976 218.585 193.281C219.456 191.586 220.682 190.265 222.264 189.318C223.855 188.371 225.72 187.898 227.86 187.898C229.3 187.898 230.64 188.13 231.88 188.594C233.13 189.048 234.219 189.735 235.147 190.653C236.085 191.572 236.814 192.727 237.335 194.119C237.855 195.502 238.116 197.121 238.116 198.977V200.639H219.693V196.889H232.42C232.42 196.018 232.23 195.246 231.852 194.574C231.473 193.902 230.947 193.376 230.275 192.997C229.612 192.609 228.84 192.415 227.96 192.415C227.041 192.415 226.227 192.628 225.516 193.054C224.816 193.471 224.266 194.034 223.869 194.744C223.471 195.445 223.267 196.226 223.258 197.088V200.653C223.258 201.733 223.457 202.666 223.855 203.452C224.262 204.238 224.835 204.844 225.573 205.27C226.312 205.696 227.188 205.909 228.201 205.909C228.873 205.909 229.489 205.814 230.048 205.625C230.606 205.436 231.085 205.152 231.482 204.773C231.88 204.394 232.183 203.93 232.391 203.381L237.988 203.75C237.704 205.095 237.122 206.269 236.241 207.273C235.37 208.267 234.243 209.044 232.86 209.602C231.487 210.152 229.901 210.426 228.102 210.426ZM252.094 218.636C250.134 218.636 248.453 218.366 247.052 217.827C245.66 217.296 244.552 216.572 243.728 215.653C242.904 214.735 242.369 213.703 242.123 212.557L247.719 211.804C247.89 212.24 248.16 212.647 248.529 213.026C248.898 213.404 249.386 213.707 249.992 213.935C250.608 214.171 251.356 214.29 252.236 214.29C253.553 214.29 254.637 213.968 255.489 213.324C256.351 212.689 256.782 211.624 256.782 210.128V206.136H256.526C256.261 206.742 255.863 207.315 255.333 207.855C254.803 208.395 254.121 208.835 253.288 209.176C252.454 209.517 251.46 209.688 250.305 209.688C248.666 209.688 247.175 209.309 245.83 208.551C244.495 207.784 243.43 206.615 242.634 205.043C241.848 203.461 241.455 201.463 241.455 199.048C241.455 196.577 241.858 194.512 242.663 192.855C243.467 191.198 244.538 189.957 245.873 189.134C247.217 188.31 248.69 187.898 250.29 187.898C251.512 187.898 252.535 188.106 253.359 188.523C254.182 188.93 254.845 189.441 255.347 190.057C255.859 190.663 256.252 191.259 256.526 191.847H256.753V188.182H262.762V210.213C262.762 212.069 262.307 213.622 261.398 214.872C260.489 216.122 259.23 217.06 257.62 217.685C256.02 218.319 254.178 218.636 252.094 218.636ZM252.222 205.142C253.198 205.142 254.021 204.901 254.694 204.418C255.376 203.925 255.896 203.224 256.256 202.315C256.626 201.397 256.81 200.298 256.81 199.02C256.81 197.741 256.63 196.634 256.27 195.696C255.911 194.749 255.39 194.015 254.708 193.494C254.026 192.973 253.198 192.713 252.222 192.713C251.228 192.713 250.39 192.983 249.708 193.523C249.026 194.053 248.51 194.792 248.16 195.739C247.809 196.686 247.634 197.779 247.634 199.02C247.634 200.279 247.809 201.368 248.16 202.287C248.52 203.196 249.036 203.902 249.708 204.403C250.39 204.896 251.228 205.142 252.222 205.142ZM277.72 210.426C275.476 210.426 273.544 209.972 271.925 209.062C270.315 208.144 269.075 206.847 268.203 205.17C267.332 203.485 266.897 201.491 266.897 199.19C266.897 196.946 267.332 194.976 268.203 193.281C269.075 191.586 270.301 190.265 271.882 189.318C273.473 188.371 275.339 187.898 277.479 187.898C278.918 187.898 280.258 188.13 281.499 188.594C282.749 189.048 283.838 189.735 284.766 190.653C285.703 191.572 286.433 192.727 286.953 194.119C287.474 195.502 287.735 197.121 287.735 198.977V200.639H269.311V196.889H282.039C282.039 196.018 281.849 195.246 281.47 194.574C281.092 193.902 280.566 193.376 279.894 192.997C279.231 192.609 278.459 192.415 277.578 192.415C276.66 192.415 275.845 192.628 275.135 193.054C274.434 193.471 273.885 194.034 273.488 194.744C273.09 195.445 272.886 196.226 272.877 197.088V200.653C272.877 201.733 273.076 202.666 273.473 203.452C273.88 204.238 274.453 204.844 275.192 205.27C275.931 205.696 276.807 205.909 277.82 205.909C278.492 205.909 279.108 205.814 279.666 205.625C280.225 205.436 280.703 205.152 281.101 204.773C281.499 204.394 281.802 203.93 282.01 203.381L287.607 203.75C287.323 205.095 286.74 206.269 285.86 207.273C284.988 208.267 283.862 209.044 282.479 209.602C281.106 210.152 279.52 210.426 277.72 210.426ZM297.935 197.386V210H291.884V188.182H297.651V192.031H297.906C298.389 190.762 299.199 189.759 300.335 189.02C301.472 188.272 302.849 187.898 304.469 187.898C305.984 187.898 307.305 188.229 308.432 188.892C309.559 189.555 310.435 190.502 311.06 191.733C311.685 192.955 311.997 194.413 311.997 196.108V210H305.946V197.188C305.955 195.852 305.615 194.811 304.923 194.062C304.232 193.305 303.28 192.926 302.068 192.926C301.254 192.926 300.534 193.101 299.909 193.452C299.294 193.802 298.811 194.313 298.46 194.986C298.119 195.649 297.944 196.449 297.935 197.386ZM326.824 210.426C324.589 210.426 322.667 209.953 321.057 209.006C319.457 208.049 318.226 206.723 317.364 205.028C316.512 203.333 316.086 201.383 316.086 199.176C316.086 196.941 316.517 194.981 317.378 193.295C318.249 191.6 319.485 190.279 321.086 189.332C322.686 188.376 324.589 187.898 326.796 187.898C328.699 187.898 330.366 188.243 331.796 188.935C333.226 189.626 334.357 190.597 335.191 191.847C336.024 193.097 336.483 194.564 336.569 196.25H330.858C330.697 195.161 330.271 194.285 329.58 193.622C328.898 192.95 328.003 192.614 326.895 192.614C325.958 192.614 325.139 192.869 324.438 193.381C323.747 193.883 323.207 194.616 322.819 195.582C322.43 196.548 322.236 197.718 322.236 199.091C322.236 200.483 322.426 201.667 322.804 202.642C323.193 203.617 323.737 204.361 324.438 204.872C325.139 205.384 325.958 205.639 326.895 205.639C327.587 205.639 328.207 205.497 328.756 205.213C329.315 204.929 329.774 204.517 330.134 203.977C330.503 203.428 330.745 202.77 330.858 202.003H336.569C336.474 203.67 336.019 205.137 335.205 206.406C334.4 207.666 333.287 208.651 331.867 209.361C330.446 210.071 328.766 210.426 326.824 210.426ZM344.379 218.182C343.612 218.182 342.892 218.12 342.22 217.997C341.557 217.884 341.007 217.737 340.572 217.557L341.936 213.04C342.646 213.258 343.285 213.376 343.853 213.395C344.431 213.414 344.928 213.281 345.345 212.997C345.771 212.713 346.116 212.23 346.382 211.548L346.737 210.625L338.91 188.182H345.274L349.791 204.205H350.018L354.578 188.182H360.984L352.504 212.358C352.096 213.532 351.543 214.555 350.842 215.426C350.15 216.307 349.275 216.984 348.214 217.457C347.153 217.94 345.875 218.182 344.379 218.182ZM369.49 206.023L369.334 207.585C369.211 208.835 368.974 210.08 368.623 211.321C368.283 212.571 367.923 213.703 367.544 214.716C367.175 215.729 366.876 216.525 366.649 217.102H362.729C362.871 216.544 363.065 215.762 363.311 214.759C363.557 213.764 363.789 212.647 364.007 211.406C364.225 210.166 364.362 208.902 364.419 207.614L364.49 206.023H369.49ZM389.975 210L381.651 180.909H388.37L393.185 201.122H393.427L398.739 180.909H404.492L409.79 201.165H410.046L414.862 180.909H421.58L413.256 210H407.262L401.722 190.98H401.495L395.969 210H389.975ZM432.558 210.426C430.314 210.426 428.382 209.972 426.763 209.062C425.153 208.144 423.912 206.847 423.041 205.17C422.17 203.485 421.734 201.491 421.734 199.19C421.734 196.946 422.17 194.976 423.041 193.281C423.912 191.586 425.138 190.265 426.72 189.318C428.311 188.371 430.176 187.898 432.316 187.898C433.756 187.898 435.096 188.13 436.336 188.594C437.586 189.048 438.675 189.735 439.603 190.653C440.541 191.572 441.27 192.727 441.791 194.119C442.312 195.502 442.572 197.121 442.572 198.977V200.639H424.149V196.889H436.876C436.876 196.018 436.687 195.246 436.308 194.574C435.929 193.902 435.404 193.376 434.731 192.997C434.068 192.609 433.297 192.415 432.416 192.415C431.497 192.415 430.683 192.628 429.973 193.054C429.272 193.471 428.723 194.034 428.325 194.744C427.927 195.445 427.724 196.226 427.714 197.088V200.653C427.714 201.733 427.913 202.666 428.311 203.452C428.718 204.238 429.291 204.844 430.03 205.27C430.768 205.696 431.644 205.909 432.657 205.909C433.33 205.909 433.945 205.814 434.504 205.625C435.063 205.436 435.541 205.152 435.939 204.773C436.336 204.394 436.639 203.93 436.848 203.381L442.444 203.75C442.16 205.095 441.578 206.269 440.697 207.273C439.826 208.267 438.699 209.044 437.316 209.602C435.943 210.152 434.357 210.426 432.558 210.426ZM464.874 194.403L459.335 194.744C459.24 194.271 459.036 193.845 458.724 193.466C458.411 193.078 457.999 192.77 457.488 192.543C456.986 192.306 456.385 192.188 455.684 192.188C454.747 192.188 453.956 192.386 453.312 192.784C452.668 193.172 452.346 193.693 452.346 194.347C452.346 194.867 452.554 195.308 452.971 195.668C453.388 196.027 454.103 196.316 455.116 196.534L459.065 197.33C461.186 197.765 462.767 198.466 463.809 199.432C464.851 200.398 465.372 201.667 465.372 203.239C465.372 204.669 464.95 205.923 464.107 207.003C463.274 208.082 462.128 208.925 460.67 209.531C459.221 210.128 457.55 210.426 455.656 210.426C452.767 210.426 450.466 209.825 448.752 208.622C447.048 207.41 446.049 205.762 445.755 203.679L451.707 203.366C451.887 204.247 452.322 204.92 453.014 205.384C453.705 205.838 454.59 206.065 455.67 206.065C456.73 206.065 457.583 205.862 458.227 205.455C458.88 205.038 459.212 204.503 459.221 203.849C459.212 203.3 458.98 202.85 458.525 202.5C458.07 202.14 457.37 201.866 456.423 201.676L452.644 200.923C450.514 200.497 448.927 199.759 447.886 198.707C446.854 197.656 446.337 196.316 446.337 194.688C446.337 193.286 446.716 192.079 447.474 191.065C448.241 190.052 449.316 189.271 450.698 188.722C452.09 188.172 453.719 187.898 455.585 187.898C458.34 187.898 460.509 188.48 462.09 189.645C463.681 190.81 464.609 192.396 464.874 194.403ZM480.987 188.182V192.727H467.848V188.182H480.987ZM470.831 182.955H476.882V203.295C476.882 203.854 476.967 204.29 477.138 204.602C477.308 204.905 477.545 205.118 477.848 205.241C478.16 205.365 478.52 205.426 478.927 205.426C479.212 205.426 479.496 205.402 479.78 205.355C480.064 205.298 480.282 205.256 480.433 205.227L481.385 209.73C481.082 209.825 480.656 209.934 480.106 210.057C479.557 210.189 478.89 210.27 478.104 210.298C476.645 210.355 475.367 210.161 474.268 209.716C473.179 209.271 472.332 208.58 471.726 207.642C471.12 206.705 470.821 205.521 470.831 204.091V182.955ZM506.348 180.909H512.428V201.193C512.428 203.068 512.006 204.697 511.163 206.08C510.33 207.462 509.17 208.527 507.683 209.276C506.196 210.024 504.468 210.398 502.499 210.398C500.747 210.398 499.156 210.09 497.726 209.474C496.305 208.849 495.179 207.902 494.345 206.634C493.512 205.355 493.1 203.75 493.109 201.818H499.232C499.25 202.585 499.407 203.243 499.7 203.793C500.003 204.332 500.415 204.749 500.936 205.043C501.466 205.327 502.091 205.469 502.811 205.469C503.569 205.469 504.208 205.308 504.729 204.986C505.259 204.654 505.661 204.171 505.936 203.537C506.211 202.902 506.348 202.121 506.348 201.193V180.909ZM525.639 210.355C523.982 210.355 522.481 209.929 521.136 209.077C519.801 208.215 518.74 206.951 517.954 205.284C517.178 203.608 516.79 201.553 516.79 199.119C516.79 196.619 517.192 194.541 517.997 192.884C518.802 191.217 519.872 189.972 521.207 189.148C522.552 188.314 524.024 187.898 525.625 187.898C526.846 187.898 527.864 188.106 528.679 188.523C529.503 188.93 530.165 189.441 530.667 190.057C531.179 190.663 531.567 191.259 531.832 191.847H532.017V188.182H538.054V210H532.088V206.506H531.832C531.548 207.112 531.146 207.713 530.625 208.31C530.113 208.897 529.446 209.384 528.622 209.773C527.807 210.161 526.813 210.355 525.639 210.355ZM527.557 205.54C528.532 205.54 529.356 205.275 530.028 204.744C530.71 204.205 531.231 203.452 531.591 202.486C531.96 201.52 532.145 200.388 532.145 199.091C532.145 197.794 531.965 196.667 531.605 195.71C531.245 194.754 530.724 194.015 530.042 193.494C529.361 192.973 528.532 192.713 527.557 192.713C526.562 192.713 525.724 192.983 525.042 193.523C524.361 194.062 523.844 194.811 523.494 195.767C523.144 196.723 522.968 197.831 522.968 199.091C522.968 200.36 523.144 201.482 523.494 202.457C523.854 203.423 524.37 204.181 525.042 204.73C525.724 205.27 526.562 205.54 527.557 205.54ZM563.57 188.182L555.942 210H549.124L541.496 188.182H547.888L552.419 203.793H552.646L557.163 188.182H563.57ZM574.203 210.355C572.546 210.355 571.045 209.929 569.7 209.077C568.365 208.215 567.304 206.951 566.518 205.284C565.742 203.608 565.354 201.553 565.354 199.119C565.354 196.619 565.756 194.541 566.561 192.884C567.366 191.217 568.436 189.972 569.771 189.148C571.116 188.314 572.588 187.898 574.189 187.898C575.41 187.898 576.428 188.106 577.243 188.523C578.067 188.93 578.73 189.441 579.231 190.057C579.743 190.663 580.131 191.259 580.396 191.847H580.581V188.182H586.618V210H580.652V206.506H580.396C580.112 207.112 579.71 207.713 579.189 208.31C578.677 208.897 578.01 209.384 577.186 209.773C576.372 210.161 575.377 210.355 574.203 210.355ZM576.121 205.54C577.096 205.54 577.92 205.275 578.592 204.744C579.274 204.205 579.795 203.452 580.155 202.486C580.524 201.52 580.709 200.388 580.709 199.091C580.709 197.794 580.529 196.667 580.169 195.71C579.809 194.754 579.288 194.015 578.606 193.494C577.925 192.973 577.096 192.713 576.121 192.713C575.126 192.713 574.288 192.983 573.606 193.523C572.925 194.062 572.408 194.811 572.058 195.767C571.708 196.723 571.533 197.831 571.533 199.091C571.533 200.36 571.708 201.482 572.058 202.457C572.418 203.423 572.934 204.181 573.606 204.73C574.288 205.27 575.126 205.54 576.121 205.54ZM598.37 206.023L598.213 207.585C598.09 208.835 597.853 210.08 597.503 211.321C597.162 212.571 596.802 213.703 596.424 214.716C596.054 215.729 595.756 216.525 595.529 217.102H591.608C591.75 216.544 591.944 215.762 592.191 214.759C592.437 213.764 592.669 212.647 592.887 211.406C593.104 210.166 593.242 208.902 593.299 207.614L593.37 206.023H598.37ZM70.679 228.909V258H64.5284V228.909H70.679ZM81.8768 245.386V258H75.8257V236.182H81.5928V240.031H81.8484C82.3314 238.762 83.1411 237.759 84.2774 237.02C85.4138 236.272 86.7916 235.898 88.4109 235.898C89.9261 235.898 91.2471 236.229 92.374 236.892C93.5009 237.555 94.3768 238.502 95.0018 239.733C95.6268 240.955 95.9393 242.413 95.9393 244.108V258H89.8882V245.188C89.8977 243.852 89.5568 242.811 88.8655 242.062C88.1742 241.305 87.2225 240.926 86.0104 240.926C85.196 240.926 84.4763 241.101 83.8513 241.452C83.2357 241.802 82.7528 242.313 82.4024 242.986C82.0615 243.649 81.8863 244.449 81.8768 245.386ZM108.948 258.355C107.291 258.355 105.79 257.929 104.445 257.077C103.11 256.215 102.05 254.951 101.264 253.284C100.487 251.608 100.099 249.553 100.099 247.119C100.099 244.619 100.501 242.541 101.306 240.884C102.111 239.217 103.181 237.972 104.516 237.148C105.861 236.314 107.334 235.898 108.934 235.898C110.156 235.898 111.174 236.106 111.988 236.523C112.812 236.93 113.475 237.441 113.977 238.057C114.488 238.663 114.876 239.259 115.141 239.847H115.326V228.909H121.363V258H115.397V254.506H115.141C114.857 255.112 114.455 255.713 113.934 256.31C113.423 256.897 112.755 257.384 111.931 257.773C111.117 258.161 110.123 258.355 108.948 258.355ZM110.866 253.54C111.841 253.54 112.665 253.275 113.338 252.744C114.019 252.205 114.54 251.452 114.9 250.486C115.269 249.52 115.454 248.388 115.454 247.091C115.454 245.794 115.274 244.667 114.914 243.71C114.554 242.754 114.034 242.015 113.352 241.494C112.67 240.973 111.841 240.713 110.866 240.713C109.872 240.713 109.034 240.983 108.352 241.523C107.67 242.062 107.154 242.811 106.803 243.767C106.453 244.723 106.278 245.831 106.278 247.091C106.278 248.36 106.453 249.482 106.803 250.457C107.163 251.423 107.679 252.181 108.352 252.73C109.034 253.27 109.872 253.54 110.866 253.54ZM136.396 258.426C134.19 258.426 132.282 257.957 130.672 257.02C129.071 256.073 127.836 254.757 126.964 253.071C126.093 251.376 125.658 249.411 125.658 247.176C125.658 244.922 126.093 242.953 126.964 241.267C127.836 239.572 129.071 238.256 130.672 237.318C132.282 236.371 134.19 235.898 136.396 235.898C138.603 235.898 140.506 236.371 142.106 237.318C143.716 238.256 144.957 239.572 145.828 241.267C146.699 242.953 147.135 244.922 147.135 247.176C147.135 249.411 146.699 251.376 145.828 253.071C144.957 254.757 143.716 256.073 142.106 257.02C140.506 257.957 138.603 258.426 136.396 258.426ZM136.425 253.739C137.428 253.739 138.266 253.455 138.939 252.886C139.611 252.309 140.118 251.523 140.459 250.528C140.809 249.534 140.984 248.402 140.984 247.134C140.984 245.865 140.809 244.733 140.459 243.739C140.118 242.744 139.611 241.958 138.939 241.381C138.266 240.803 137.428 240.514 136.425 240.514C135.411 240.514 134.559 240.803 133.868 241.381C133.186 241.958 132.67 242.744 132.319 243.739C131.979 244.733 131.808 245.865 131.808 247.134C131.808 248.402 131.979 249.534 132.319 250.528C132.67 251.523 133.186 252.309 133.868 252.886C134.559 253.455 135.411 253.739 136.425 253.739ZM157.321 245.386V258H151.269V236.182H157.037V240.031H157.292C157.775 238.762 158.585 237.759 159.721 237.02C160.858 236.272 162.235 235.898 163.855 235.898C165.37 235.898 166.691 236.229 167.818 236.892C168.945 237.555 169.821 238.502 170.446 239.733C171.071 240.955 171.383 242.413 171.383 244.108V258H165.332V245.188C165.341 243.852 165.001 242.811 164.309 242.062C163.618 241.305 162.666 240.926 161.454 240.926C160.64 240.926 159.92 241.101 159.295 241.452C158.68 241.802 158.197 242.313 157.846 242.986C157.505 243.649 157.33 244.449 157.321 245.386ZM186.295 258.426C184.051 258.426 182.119 257.972 180.5 257.062C178.89 256.144 177.65 254.847 176.778 253.17C175.907 251.485 175.472 249.491 175.472 247.19C175.472 244.946 175.907 242.976 176.778 241.281C177.65 239.586 178.876 238.265 180.457 237.318C182.048 236.371 183.914 235.898 186.054 235.898C187.493 235.898 188.833 236.13 190.074 236.594C191.324 237.048 192.413 237.735 193.341 238.653C194.278 239.572 195.008 240.727 195.528 242.119C196.049 243.502 196.31 245.121 196.31 246.977V248.639H177.886V244.889H190.614C190.614 244.018 190.424 243.246 190.045 242.574C189.667 241.902 189.141 241.376 188.469 240.997C187.806 240.609 187.034 240.415 186.153 240.415C185.235 240.415 184.42 240.628 183.71 241.054C183.009 241.471 182.46 242.034 182.062 242.744C181.665 243.445 181.461 244.226 181.452 245.088V248.653C181.452 249.733 181.651 250.666 182.048 251.452C182.455 252.238 183.028 252.844 183.767 253.27C184.506 253.696 185.382 253.909 186.395 253.909C187.067 253.909 187.683 253.814 188.241 253.625C188.8 253.436 189.278 253.152 189.676 252.773C190.074 252.394 190.377 251.93 190.585 251.381L196.182 251.75C195.898 253.095 195.315 254.269 194.435 255.273C193.563 256.267 192.437 257.044 191.054 257.602C189.681 258.152 188.095 258.426 186.295 258.426ZM218.612 242.403L213.072 242.744C212.977 242.271 212.774 241.845 212.461 241.466C212.149 241.078 211.737 240.77 211.226 240.543C210.724 240.306 210.122 240.188 209.422 240.188C208.484 240.188 207.693 240.386 207.049 240.784C206.405 241.172 206.084 241.693 206.084 242.347C206.084 242.867 206.292 243.308 206.709 243.668C207.125 244.027 207.84 244.316 208.853 244.534L212.802 245.33C214.923 245.765 216.505 246.466 217.547 247.432C218.588 248.398 219.109 249.667 219.109 251.239C219.109 252.669 218.688 253.923 217.845 255.003C217.012 256.082 215.866 256.925 214.407 257.531C212.959 258.128 211.287 258.426 209.393 258.426C206.505 258.426 204.204 257.825 202.49 256.622C200.785 255.41 199.786 253.762 199.493 251.679L205.444 251.366C205.624 252.247 206.06 252.92 206.751 253.384C207.442 253.838 208.328 254.065 209.407 254.065C210.468 254.065 211.32 253.862 211.964 253.455C212.618 253.038 212.949 252.503 212.959 251.849C212.949 251.3 212.717 250.85 212.262 250.5C211.808 250.14 211.107 249.866 210.16 249.676L206.382 248.923C204.251 248.497 202.665 247.759 201.623 246.707C200.591 245.656 200.075 244.316 200.075 242.688C200.075 241.286 200.454 240.079 201.211 239.065C201.978 238.052 203.053 237.271 204.436 236.722C205.828 236.172 207.457 235.898 209.322 235.898C212.078 235.898 214.246 236.48 215.828 237.645C217.419 238.81 218.347 240.396 218.612 242.403ZM223.119 258V236.182H229.171V258H223.119ZM226.159 233.369C225.26 233.369 224.488 233.071 223.844 232.474C223.209 231.868 222.892 231.144 222.892 230.301C222.892 229.468 223.209 228.753 223.844 228.156C224.488 227.55 225.26 227.247 226.159 227.247C227.059 227.247 227.826 227.55 228.46 228.156C229.104 228.753 229.426 229.468 229.426 230.301C229.426 231.144 229.104 231.868 228.46 232.474C227.826 233.071 227.059 233.369 226.159 233.369ZM242.258 258.355C240.6 258.355 239.1 257.929 237.755 257.077C236.42 256.215 235.359 254.951 234.573 253.284C233.797 251.608 233.408 249.553 233.408 247.119C233.408 244.619 233.811 242.541 234.616 240.884C235.421 239.217 236.491 237.972 237.826 237.148C239.171 236.314 240.643 235.898 242.243 235.898C243.465 235.898 244.483 236.106 245.297 236.523C246.121 236.93 246.784 237.441 247.286 238.057C247.797 238.663 248.186 239.259 248.451 239.847H248.636V236.182H254.672V258H248.707V254.506H248.451C248.167 255.112 247.764 255.713 247.243 256.31C246.732 256.897 246.064 257.384 245.241 257.773C244.426 258.161 243.432 258.355 242.258 258.355ZM244.175 253.54C245.151 253.54 245.975 253.275 246.647 252.744C247.329 252.205 247.85 251.452 248.209 250.486C248.579 249.52 248.763 248.388 248.763 247.091C248.763 245.794 248.583 244.667 248.224 243.71C247.864 242.754 247.343 242.015 246.661 241.494C245.979 240.973 245.151 240.713 244.175 240.713C243.181 240.713 242.343 240.983 241.661 241.523C240.979 242.062 240.463 242.811 240.113 243.767C239.762 244.723 239.587 245.831 239.587 247.091C239.587 248.36 239.762 249.482 240.113 250.457C240.473 251.423 240.989 252.181 241.661 252.73C242.343 253.27 243.181 253.54 244.175 253.54ZM263.385 258.369C262.447 258.369 261.642 258.038 260.97 257.375C260.307 256.703 259.975 255.898 259.975 254.96C259.975 254.032 260.307 253.237 260.97 252.574C261.642 251.911 262.447 251.58 263.385 251.58C264.294 251.58 265.089 251.911 265.771 252.574C266.453 253.237 266.794 254.032 266.794 254.96C266.794 255.585 266.633 256.158 266.311 256.679C265.998 257.19 265.586 257.602 265.075 257.915C264.563 258.218 264 258.369 263.385 258.369Z" fill="white"/>
<path d="M104.108 162V132.909H123.369V137.98H110.259V144.912H122.091V149.983H110.259V162H104.108ZM127.241 162V140.182H133.108V143.989H133.335C133.733 142.634 134.4 141.612 135.338 140.92C136.275 140.22 137.355 139.869 138.577 139.869C138.88 139.869 139.206 139.888 139.557 139.926C139.907 139.964 140.215 140.016 140.48 140.082V145.452C140.196 145.366 139.803 145.291 139.301 145.224C138.799 145.158 138.34 145.125 137.923 145.125C137.033 145.125 136.238 145.319 135.537 145.707C134.846 146.086 134.296 146.616 133.889 147.298C133.491 147.98 133.292 148.766 133.292 149.656V162H127.241ZM152.651 162.426C150.444 162.426 148.536 161.957 146.926 161.02C145.326 160.073 144.09 158.757 143.219 157.071C142.348 155.376 141.912 153.411 141.912 151.176C141.912 148.922 142.348 146.953 143.219 145.267C144.09 143.572 145.326 142.256 146.926 141.318C148.536 140.371 150.444 139.898 152.651 139.898C154.857 139.898 156.761 140.371 158.361 141.318C159.971 142.256 161.211 143.572 162.083 145.267C162.954 146.953 163.389 148.922 163.389 151.176C163.389 153.411 162.954 155.376 162.083 157.071C161.211 158.757 159.971 160.073 158.361 161.02C156.761 161.957 154.857 162.426 152.651 162.426ZM152.679 157.739C153.683 157.739 154.521 157.455 155.193 156.886C155.866 156.309 156.372 155.523 156.713 154.528C157.064 153.534 157.239 152.402 157.239 151.134C157.239 149.865 157.064 148.733 156.713 147.739C156.372 146.744 155.866 145.958 155.193 145.381C154.521 144.803 153.683 144.514 152.679 144.514C151.666 144.514 150.814 144.803 150.122 145.381C149.441 145.958 148.925 146.744 148.574 147.739C148.233 148.733 148.063 149.865 148.063 151.134C148.063 152.402 148.233 153.534 148.574 154.528C148.925 155.523 149.441 156.309 150.122 156.886C150.814 157.455 151.666 157.739 152.679 157.739ZM173.575 149.386V162H167.524V140.182H173.291V144.031H173.547C174.03 142.762 174.839 141.759 175.976 141.02C177.112 140.272 178.49 139.898 180.109 139.898C181.625 139.898 182.946 140.229 184.072 140.892C185.199 141.555 186.075 142.502 186.7 143.733C187.325 144.955 187.638 146.413 187.638 148.108V162H181.587V149.188C181.596 147.852 181.255 146.811 180.564 146.062C179.873 145.305 178.921 144.926 177.709 144.926C176.894 144.926 176.175 145.101 175.55 145.452C174.934 145.802 174.451 146.313 174.101 146.986C173.76 147.649 173.585 148.449 173.575 149.386ZM204.212 140.182V144.727H191.073V140.182H204.212ZM194.056 134.955H200.107V155.295C200.107 155.854 200.192 156.29 200.363 156.602C200.533 156.905 200.77 157.118 201.073 157.241C201.385 157.365 201.745 157.426 202.152 157.426C202.437 157.426 202.721 157.402 203.005 157.355C203.289 157.298 203.507 157.256 203.658 157.227L204.61 161.73C204.307 161.825 203.881 161.934 203.331 162.057C202.782 162.189 202.115 162.27 201.329 162.298C199.87 162.355 198.592 162.161 197.493 161.716C196.404 161.271 195.557 160.58 194.951 159.642C194.345 158.705 194.046 157.521 194.056 156.091V134.955ZM218.063 162.426C215.818 162.426 213.886 161.972 212.267 161.062C210.657 160.144 209.417 158.847 208.546 157.17C207.674 155.485 207.239 153.491 207.239 151.19C207.239 148.946 207.674 146.976 208.546 145.281C209.417 143.586 210.643 142.265 212.225 141.318C213.815 140.371 215.681 139.898 217.821 139.898C219.261 139.898 220.601 140.13 221.841 140.594C223.091 141.048 224.18 141.735 225.108 142.653C226.046 143.572 226.775 144.727 227.296 146.119C227.816 147.502 228.077 149.121 228.077 150.977V152.639H209.654V148.889H222.381C222.381 148.018 222.191 147.246 221.813 146.574C221.434 145.902 220.908 145.376 220.236 144.997C219.573 144.609 218.801 144.415 217.921 144.415C217.002 144.415 216.188 144.628 215.477 145.054C214.777 145.471 214.227 146.034 213.83 146.744C213.432 147.445 213.228 148.226 213.219 149.088V152.653C213.219 153.733 213.418 154.666 213.815 155.452C214.223 156.238 214.796 156.844 215.534 157.27C216.273 157.696 217.149 157.909 218.162 157.909C218.834 157.909 219.45 157.814 220.009 157.625C220.567 157.436 221.046 157.152 221.443 156.773C221.841 156.394 222.144 155.93 222.352 155.381L227.949 155.75C227.665 157.095 227.083 158.269 226.202 159.273C225.331 160.267 224.204 161.044 222.821 161.602C221.448 162.152 219.862 162.426 218.063 162.426ZM238.277 149.386V162H232.226V140.182H237.993V144.031H238.248C238.731 142.762 239.541 141.759 240.677 141.02C241.814 140.272 243.192 139.898 244.811 139.898C246.326 139.898 247.647 140.229 248.774 140.892C249.901 141.555 250.777 142.502 251.402 143.733C252.027 144.955 252.339 146.413 252.339 148.108V162H246.288V149.188C246.298 147.852 245.957 146.811 245.265 146.062C244.574 145.305 243.622 144.926 242.41 144.926C241.596 144.926 240.876 145.101 240.251 145.452C239.636 145.802 239.153 146.313 238.802 146.986C238.462 147.649 238.286 148.449 238.277 149.386ZM265.348 162.355C263.691 162.355 262.19 161.929 260.845 161.077C259.51 160.215 258.45 158.951 257.664 157.284C256.887 155.608 256.499 153.553 256.499 151.119C256.499 148.619 256.901 146.541 257.706 144.884C258.511 143.217 259.581 141.972 260.916 141.148C262.261 140.314 263.734 139.898 265.334 139.898C266.556 139.898 267.574 140.106 268.388 140.523C269.212 140.93 269.875 141.441 270.377 142.057C270.888 142.663 271.276 143.259 271.541 143.847H271.726V132.909H277.763V162H271.797V158.506H271.541C271.257 159.112 270.855 159.713 270.334 160.31C269.823 160.897 269.155 161.384 268.331 161.773C267.517 162.161 266.523 162.355 265.348 162.355ZM267.266 157.54C268.241 157.54 269.065 157.275 269.738 156.744C270.419 156.205 270.94 155.452 271.3 154.486C271.669 153.52 271.854 152.388 271.854 151.091C271.854 149.794 271.674 148.667 271.314 147.71C270.954 146.754 270.434 146.015 269.752 145.494C269.07 144.973 268.241 144.713 267.266 144.713C266.272 144.713 265.434 144.983 264.752 145.523C264.07 146.062 263.554 146.811 263.203 147.767C262.853 148.723 262.678 149.831 262.678 151.091C262.678 152.36 262.853 153.482 263.203 154.457C263.563 155.423 264.079 156.181 264.752 156.73C265.434 157.27 266.272 157.54 267.266 157.54ZM302.822 162H292.51V132.909H302.907C305.834 132.909 308.352 133.491 310.464 134.656C312.576 135.812 314.2 137.473 315.336 139.642C316.482 141.811 317.055 144.405 317.055 147.426C317.055 150.456 316.482 153.061 315.336 155.239C314.2 157.417 312.566 159.088 310.436 160.253C308.315 161.418 305.777 162 302.822 162ZM298.66 156.73H302.566C304.385 156.73 305.914 156.408 307.155 155.764C308.405 155.111 309.342 154.102 309.967 152.739C310.602 151.366 310.919 149.595 310.919 147.426C310.919 145.277 310.602 143.52 309.967 142.156C309.342 140.793 308.409 139.789 307.169 139.145C305.928 138.501 304.399 138.179 302.581 138.179H298.66V156.73ZM331.641 162.426C329.396 162.426 327.465 161.972 325.845 161.062C324.235 160.144 322.995 158.847 322.124 157.17C321.253 155.485 320.817 153.491 320.817 151.19C320.817 148.946 321.253 146.976 322.124 145.281C322.995 143.586 324.221 142.265 325.803 141.318C327.394 140.371 329.259 139.898 331.399 139.898C332.839 139.898 334.179 140.13 335.419 140.594C336.669 141.048 337.758 141.735 338.686 142.653C339.624 143.572 340.353 144.727 340.874 146.119C341.395 147.502 341.655 149.121 341.655 150.977V152.639H323.232V148.889H335.959C335.959 148.018 335.77 147.246 335.391 146.574C335.012 145.902 334.486 145.376 333.814 144.997C333.151 144.609 332.379 144.415 331.499 144.415C330.58 144.415 329.766 144.628 329.056 145.054C328.355 145.471 327.806 146.034 327.408 146.744C327.01 147.445 326.806 148.226 326.797 149.088V152.653C326.797 153.733 326.996 154.666 327.394 155.452C327.801 156.238 328.374 156.844 329.112 157.27C329.851 157.696 330.727 157.909 331.74 157.909C332.413 157.909 333.028 157.814 333.587 157.625C334.145 157.436 334.624 157.152 335.021 156.773C335.419 156.394 335.722 155.93 335.931 155.381L341.527 155.75C341.243 157.095 340.661 158.269 339.78 159.273C338.909 160.267 337.782 161.044 336.399 161.602C335.026 162.152 333.44 162.426 331.641 162.426ZM365.559 140.182L357.931 162H351.113L343.485 140.182H349.877L354.408 155.793H354.636L359.153 140.182H365.559ZM378.095 162.426C375.851 162.426 373.919 161.972 372.3 161.062C370.69 160.144 369.45 158.847 368.578 157.17C367.707 155.485 367.272 153.491 367.272 151.19C367.272 148.946 367.707 146.976 368.578 145.281C369.45 143.586 370.676 142.265 372.257 141.318C373.848 140.371 375.714 139.898 377.854 139.898C379.293 139.898 380.633 140.13 381.874 140.594C383.124 141.048 384.213 141.735 385.141 142.653C386.078 143.572 386.808 144.727 387.328 146.119C387.849 147.502 388.11 149.121 388.11 150.977V152.639H369.686V148.889H382.414C382.414 148.018 382.224 147.246 381.845 146.574C381.467 145.902 380.941 145.376 380.269 144.997C379.606 144.609 378.834 144.415 377.953 144.415C377.035 144.415 376.22 144.628 375.51 145.054C374.809 145.471 374.26 146.034 373.862 146.744C373.465 147.445 373.261 148.226 373.252 149.088V152.653C373.252 153.733 373.451 154.666 373.848 155.452C374.255 156.238 374.828 156.844 375.567 157.27C376.306 157.696 377.182 157.909 378.195 157.909C378.867 157.909 379.483 157.814 380.041 157.625C380.6 157.436 381.078 157.152 381.476 156.773C381.874 156.394 382.177 155.93 382.385 155.381L387.982 155.75C387.698 157.095 387.115 158.269 386.235 159.273C385.363 160.267 384.237 161.044 382.854 161.602C381.481 162.152 379.895 162.426 378.095 162.426ZM398.31 132.909V162H392.259V132.909H398.31ZM413.215 162.426C411.008 162.426 409.1 161.957 407.49 161.02C405.89 160.073 404.654 158.757 403.783 157.071C402.912 155.376 402.476 153.411 402.476 151.176C402.476 148.922 402.912 146.953 403.783 145.267C404.654 143.572 405.89 142.256 407.49 141.318C409.1 140.371 411.008 139.898 413.215 139.898C415.421 139.898 417.325 140.371 418.925 141.318C420.535 142.256 421.776 143.572 422.647 145.267C423.518 146.953 423.954 148.922 423.954 151.176C423.954 153.411 423.518 155.376 422.647 157.071C421.776 158.757 420.535 160.073 418.925 161.02C417.325 161.957 415.421 162.426 413.215 162.426ZM413.243 157.739C414.247 157.739 415.085 157.455 415.758 156.886C416.43 156.309 416.937 155.523 417.277 154.528C417.628 153.534 417.803 152.402 417.803 151.134C417.803 149.865 417.628 148.733 417.277 147.739C416.937 146.744 416.43 145.958 415.758 145.381C415.085 144.803 414.247 144.514 413.243 144.514C412.23 144.514 411.378 144.803 410.687 145.381C410.005 145.958 409.489 146.744 409.138 147.739C408.797 148.733 408.627 149.865 408.627 151.134C408.627 152.402 408.797 153.534 409.138 154.528C409.489 155.523 410.005 156.309 410.687 156.886C411.378 157.455 412.23 157.739 413.243 157.739ZM428.088 170.182V140.182H434.054V143.847H434.324C434.589 143.259 434.973 142.663 435.475 142.057C435.986 141.441 436.649 140.93 437.463 140.523C438.287 140.106 439.31 139.898 440.531 139.898C442.122 139.898 443.59 140.314 444.935 141.148C446.279 141.972 447.354 143.217 448.159 144.884C448.964 146.541 449.367 148.619 449.367 151.119C449.367 153.553 448.974 155.608 448.188 157.284C447.411 158.951 446.351 160.215 445.006 161.077C443.671 161.929 442.174 162.355 440.517 162.355C439.343 162.355 438.344 162.161 437.52 161.773C436.706 161.384 436.038 160.897 435.517 160.31C434.996 159.713 434.599 159.112 434.324 158.506H434.139V170.182H428.088ZM434.012 151.091C434.012 152.388 434.191 153.52 434.551 154.486C434.911 155.452 435.432 156.205 436.114 156.744C436.796 157.275 437.624 157.54 438.6 157.54C439.584 157.54 440.418 157.27 441.1 156.73C441.781 156.181 442.297 155.423 442.648 154.457C443.008 153.482 443.188 152.36 443.188 151.091C443.188 149.831 443.012 148.723 442.662 147.767C442.312 146.811 441.796 146.062 441.114 145.523C440.432 144.983 439.594 144.713 438.6 144.713C437.615 144.713 436.781 144.973 436.1 145.494C435.427 146.015 434.911 146.754 434.551 147.71C434.191 148.667 434.012 149.794 434.012 151.091ZM463.544 162.426C461.3 162.426 459.368 161.972 457.748 161.062C456.139 160.144 454.898 158.847 454.027 157.17C453.156 155.485 452.72 153.491 452.72 151.19C452.72 148.946 453.156 146.976 454.027 145.281C454.898 143.586 456.124 142.265 457.706 141.318C459.297 140.371 461.162 139.898 463.302 139.898C464.742 139.898 466.082 140.13 467.322 140.594C468.572 141.048 469.661 141.735 470.589 142.653C471.527 143.572 472.256 144.727 472.777 146.119C473.298 147.502 473.558 149.121 473.558 150.977V152.639H455.135V148.889H467.862C467.862 148.018 467.673 147.246 467.294 146.574C466.915 145.902 466.39 145.376 465.717 144.997C465.054 144.609 464.283 144.415 463.402 144.415C462.483 144.415 461.669 144.628 460.959 145.054C460.258 145.471 459.709 146.034 459.311 146.744C458.913 147.445 458.71 148.226 458.7 149.088V152.653C458.7 153.733 458.899 154.666 459.297 155.452C459.704 156.238 460.277 156.844 461.015 157.27C461.754 157.696 462.63 157.909 463.643 157.909C464.316 157.909 464.931 157.814 465.49 157.625C466.049 157.436 466.527 157.152 466.925 156.773C467.322 156.394 467.625 155.93 467.834 155.381L473.43 155.75C473.146 157.095 472.564 158.269 471.683 159.273C470.812 160.267 469.685 161.044 468.302 161.602C466.929 162.152 465.343 162.426 463.544 162.426ZM477.707 162V140.182H483.573V143.989H483.801C484.198 142.634 484.866 141.612 485.804 140.92C486.741 140.22 487.821 139.869 489.042 139.869C489.345 139.869 489.672 139.888 490.022 139.926C490.373 139.964 490.68 140.016 490.946 140.082V145.452C490.661 145.366 490.269 145.291 489.767 145.224C489.265 145.158 488.805 145.125 488.389 145.125C487.499 145.125 486.703 145.319 486.002 145.707C485.311 146.086 484.762 146.616 484.355 147.298C483.957 147.98 483.758 148.766 483.758 149.656V162H477.707Z" fill="#22D3EE"/>
<path d="M66.0312 85L62.4688 71.9091H66.142L68.1705 80.7045H68.2898L70.4034 71.9091H74.0085L76.1562 80.6534H76.267L78.2614 71.9091H81.9261L78.3722 85H74.5284L72.2784 76.767H72.1165L69.8665 85H66.0312ZM86.6453 85L83.0828 71.9091H86.7561L88.7845 80.7045H88.9038L91.0175 71.9091H94.6226L96.7703 80.6534H96.8811L98.8754 71.9091H102.54L98.9862 85H95.1425L92.8925 76.767H92.7305L90.4805 85H86.6453ZM107.259 85L103.697 71.9091H107.37L109.399 80.7045H109.518L111.632 71.9091H115.237L117.384 80.6534H117.495L119.489 71.9091H123.154L119.6 85H115.757L113.507 76.767H113.345L111.095 85H107.259ZM125.632 85.2216C125.069 85.2216 124.587 85.0227 124.183 84.625C123.785 84.2216 123.587 83.7386 123.587 83.1761C123.587 82.6193 123.785 82.142 124.183 81.7443C124.587 81.3466 125.069 81.1477 125.632 81.1477C126.177 81.1477 126.655 81.3466 127.064 81.7443C127.473 82.142 127.677 82.6193 127.677 83.1761C127.677 83.5511 127.581 83.8949 127.388 84.2074C127.2 84.5142 126.953 84.7614 126.646 84.9489C126.339 85.1307 126.001 85.2216 125.632 85.2216ZM137.898 71.9091V74.6364H129.818V71.9091H137.898ZM131.668 85V70.9631C131.668 70.0142 131.853 69.2273 132.222 68.6023C132.597 67.9773 133.108 67.5085 133.756 67.196C134.404 66.8835 135.139 66.7273 135.963 66.7273C136.52 66.7273 137.029 66.7699 137.489 66.8551C137.955 66.9403 138.301 67.017 138.529 67.0852L137.881 69.8125C137.739 69.767 137.563 69.7244 137.353 69.6847C137.148 69.6449 136.938 69.625 136.722 69.625C136.188 69.625 135.816 69.75 135.605 70C135.395 70.2443 135.29 70.5881 135.29 71.0312V85H131.668ZM144.671 85.2131C143.677 85.2131 142.776 84.9574 141.969 84.446C141.168 83.929 140.532 83.1705 140.06 82.1705C139.594 81.1648 139.362 79.9318 139.362 78.4716C139.362 76.9716 139.603 75.7244 140.086 74.7301C140.569 73.7301 141.211 72.983 142.012 72.4886C142.819 71.9886 143.702 71.7386 144.663 71.7386C145.396 71.7386 146.006 71.8636 146.495 72.1136C146.989 72.358 147.387 72.6648 147.688 73.0341C147.995 73.3977 148.228 73.7557 148.387 74.108H148.498V71.9091H152.12V85H148.54V82.9034H148.387C148.217 83.267 147.975 83.6278 147.663 83.9858C147.356 84.3381 146.955 84.6307 146.461 84.8636C145.972 85.0966 145.376 85.2131 144.671 85.2131ZM145.822 82.3239C146.407 82.3239 146.901 82.1648 147.305 81.8466C147.714 81.5227 148.026 81.071 148.242 80.4915C148.464 79.9119 148.575 79.233 148.575 78.4545C148.575 77.6761 148.467 77 148.251 76.4261C148.035 75.8523 147.722 75.4091 147.313 75.0966C146.904 74.7841 146.407 74.6278 145.822 74.6278C145.225 74.6278 144.722 74.7898 144.313 75.1136C143.904 75.4375 143.594 75.8864 143.384 76.4602C143.174 77.0341 143.069 77.6989 143.069 78.4545C143.069 79.2159 143.174 79.8892 143.384 80.4744C143.6 81.054 143.91 81.5085 144.313 81.8381C144.722 82.1619 145.225 82.3239 145.822 82.3239ZM158.936 77.4318V85H155.305V67.5455H158.834V74.2188H158.987C159.282 73.446 159.76 72.8409 160.419 72.4034C161.078 71.9602 161.905 71.7386 162.899 71.7386C163.808 71.7386 164.601 71.9375 165.277 72.3352C165.959 72.7273 166.487 73.2926 166.862 74.0312C167.243 74.7642 167.43 75.642 167.424 76.6648V85H163.794V77.3125C163.799 76.5057 163.595 75.8778 163.18 75.429C162.771 74.9801 162.197 74.7557 161.459 74.7557C160.964 74.7557 160.527 74.8608 160.146 75.071C159.771 75.2812 159.476 75.5881 159.26 75.9915C159.049 76.3892 158.941 76.8693 158.936 77.4318ZM170.482 85V71.9091H173.942V74.2188H174.095C174.368 73.4517 174.823 72.8466 175.459 72.4034C176.095 71.9602 176.857 71.7386 177.743 71.7386C178.641 71.7386 179.405 71.9631 180.036 72.4119C180.666 72.8551 181.087 73.4574 181.297 74.2188H181.433C181.7 73.4688 182.183 72.8693 182.882 72.4205C183.587 71.9659 184.419 71.7386 185.379 71.7386C186.601 71.7386 187.592 72.1278 188.354 72.9062C189.121 73.679 189.504 74.7756 189.504 76.196V85H185.882V76.9119C185.882 76.1847 185.689 75.6392 185.303 75.2756C184.916 74.9119 184.433 74.7301 183.854 74.7301C183.195 74.7301 182.681 74.9403 182.311 75.3608C181.942 75.7756 181.757 76.3239 181.757 77.0057V85H178.237V76.8352C178.237 76.1932 178.053 75.6818 177.683 75.3011C177.32 74.9205 176.84 74.7301 176.243 74.7301C175.84 74.7301 175.476 74.8324 175.152 75.0369C174.834 75.2358 174.581 75.517 174.394 75.8807C174.206 76.2386 174.112 76.6591 174.112 77.142V85H170.482ZM192.572 85V71.9091H196.203V85H192.572ZM194.396 70.2216C193.856 70.2216 193.393 70.0426 193.007 69.6847C192.626 69.321 192.436 68.8864 192.436 68.3807C192.436 67.8807 192.626 67.4517 193.007 67.0938C193.393 66.7301 193.856 66.5483 194.396 66.5483C194.936 66.5483 195.396 66.7301 195.777 67.0938C196.163 67.4517 196.356 67.8807 196.356 68.3807C196.356 68.8864 196.163 69.321 195.777 69.6847C195.396 70.0426 194.936 70.2216 194.396 70.2216ZM199.311 85V71.9091H202.942V85H199.311ZM201.135 70.2216C200.595 70.2216 200.132 70.0426 199.746 69.6847C199.365 69.321 199.175 68.8864 199.175 68.3807C199.175 67.8807 199.365 67.4517 199.746 67.0938C200.132 66.7301 200.595 66.5483 201.135 66.5483C201.675 66.5483 202.135 66.7301 202.516 67.0938C202.902 67.4517 203.095 67.8807 203.095 68.3807C203.095 68.8864 202.902 69.321 202.516 69.6847C202.135 70.0426 201.675 70.2216 201.135 70.2216ZM210.874 85.2131C209.88 85.2131 208.979 84.9574 208.173 84.446C207.371 83.929 206.735 83.1705 206.263 82.1705C205.798 81.1648 205.565 79.9318 205.565 78.4716C205.565 76.9716 205.806 75.7244 206.289 74.7301C206.772 73.7301 207.414 72.983 208.215 72.4886C209.022 71.9886 209.906 71.7386 210.866 71.7386C211.599 71.7386 212.21 71.8636 212.698 72.1136C213.192 72.358 213.59 72.6648 213.891 73.0341C214.198 73.3977 214.431 73.7557 214.59 74.108H214.701V67.5455H218.323V85H214.744V82.9034H214.59C214.42 83.267 214.178 83.6278 213.866 83.9858C213.559 84.3381 213.158 84.6307 212.664 84.8636C212.175 85.0966 211.579 85.2131 210.874 85.2131ZM212.025 82.3239C212.61 82.3239 213.104 82.1648 213.508 81.8466C213.917 81.5227 214.229 81.071 214.445 80.4915C214.667 79.9119 214.778 79.233 214.778 78.4545C214.778 77.6761 214.67 77 214.454 76.4261C214.238 75.8523 213.925 75.4091 213.516 75.0966C213.107 74.7841 212.61 74.6278 212.025 74.6278C211.428 74.6278 210.925 74.7898 210.516 75.1136C210.107 75.4375 209.798 75.8864 209.587 76.4602C209.377 77.0341 209.272 77.6989 209.272 78.4545C209.272 79.2159 209.377 79.8892 209.587 80.4744C209.803 81.054 210.113 81.5085 210.516 81.8381C210.925 82.1619 211.428 82.3239 212.025 82.3239ZM221.508 85V71.9091H225.028V74.1932H225.164C225.403 73.3807 225.804 72.767 226.366 72.3523C226.929 71.9318 227.576 71.7216 228.309 71.7216C228.491 71.7216 228.687 71.733 228.897 71.7557C229.108 71.7784 229.292 71.8097 229.451 71.8494V75.071C229.281 75.0199 229.045 74.9744 228.744 74.9347C228.443 74.8949 228.167 74.875 227.917 74.875C227.383 74.875 226.906 74.9915 226.486 75.2244C226.071 75.4517 225.741 75.7699 225.497 76.179C225.258 76.5881 225.139 77.0597 225.139 77.5938V85H221.508ZM231.529 85V71.9091H235.159V85H231.529ZM233.352 70.2216C232.813 70.2216 232.35 70.0426 231.963 69.6847C231.583 69.321 231.392 68.8864 231.392 68.3807C231.392 67.8807 231.583 67.4517 231.963 67.0938C232.35 66.7301 232.813 66.5483 233.352 66.5483C233.892 66.5483 234.352 66.7301 234.733 67.0938C235.119 67.4517 235.313 67.8807 235.313 68.3807C235.313 68.8864 235.119 69.321 234.733 69.6847C234.352 70.0426 233.892 70.2216 233.352 70.2216ZM249.16 75.642L245.836 75.8466C245.779 75.5625 245.657 75.3068 245.469 75.0795C245.282 74.8466 245.035 74.6619 244.728 74.5256C244.427 74.3835 244.066 74.3125 243.645 74.3125C243.083 74.3125 242.609 74.4318 242.222 74.6705C241.836 74.9034 241.643 75.2159 241.643 75.608C241.643 75.9205 241.768 76.1847 242.018 76.4006C242.268 76.6165 242.697 76.7898 243.305 76.9205L245.674 77.3977C246.947 77.6591 247.895 78.0795 248.52 78.6591C249.145 79.2386 249.458 80 249.458 80.9432C249.458 81.8011 249.205 82.554 248.699 83.2017C248.199 83.8494 247.512 84.3551 246.637 84.7188C245.768 85.0767 244.765 85.2557 243.628 85.2557C241.895 85.2557 240.515 84.8949 239.486 84.1733C238.464 83.446 237.864 82.4574 237.688 81.2074L241.259 81.0199C241.367 81.5483 241.628 81.9517 242.043 82.2301C242.458 82.5028 242.989 82.6392 243.637 82.6392C244.273 82.6392 244.785 82.517 245.171 82.2727C245.563 82.0227 245.762 81.7017 245.768 81.3097C245.762 80.9801 245.623 80.7102 245.35 80.5C245.077 80.2841 244.657 80.1193 244.089 80.0057L241.822 79.554C240.543 79.2983 239.591 78.8551 238.966 78.2244C238.347 77.5937 238.038 76.7898 238.038 75.8125C238.038 74.9716 238.265 74.2472 238.719 73.6392C239.18 73.0312 239.824 72.5625 240.654 72.233C241.489 71.9034 242.466 71.7386 243.586 71.7386C245.239 71.7386 246.54 72.0881 247.489 72.7869C248.444 73.4858 249.001 74.4375 249.16 75.642ZM254.066 85.2216C253.504 85.2216 253.021 85.0227 252.617 84.625C252.22 84.2216 252.021 83.7386 252.021 83.1761C252.021 82.6193 252.22 82.142 252.617 81.7443C253.021 81.3466 253.504 81.1477 254.066 81.1477C254.612 81.1477 255.089 81.3466 255.498 81.7443C255.907 82.142 256.112 82.6193 256.112 83.1761C256.112 83.5511 256.015 83.8949 255.822 84.2074C255.635 84.5142 255.387 84.7614 255.081 84.9489C254.774 85.1307 254.436 85.2216 254.066 85.2216ZM264.116 85.2131C263.122 85.2131 262.222 84.9574 261.415 84.446C260.614 83.929 259.977 83.1705 259.506 82.1705C259.04 81.1648 258.807 79.9318 258.807 78.4716C258.807 76.9716 259.048 75.7244 259.531 74.7301C260.014 73.7301 260.656 72.983 261.457 72.4886C262.264 71.9886 263.148 71.7386 264.108 71.7386C264.841 71.7386 265.452 71.8636 265.94 72.1136C266.435 72.358 266.832 72.6648 267.134 73.0341C267.44 73.3977 267.673 73.7557 267.832 74.108H267.943V67.5455H271.565V85H267.986V82.9034H267.832C267.662 83.267 267.42 83.6278 267.108 83.9858C266.801 84.3381 266.401 84.6307 265.906 84.8636C265.418 85.0966 264.821 85.2131 264.116 85.2131ZM265.267 82.3239C265.852 82.3239 266.347 82.1648 266.75 81.8466C267.159 81.5227 267.472 81.071 267.688 80.4915C267.909 79.9119 268.02 79.233 268.02 78.4545C268.02 77.6761 267.912 77 267.696 76.4261C267.48 75.8523 267.168 75.4091 266.759 75.0966C266.349 74.7841 265.852 74.6278 265.267 74.6278C264.67 74.6278 264.168 74.7898 263.759 75.1136C263.349 75.4375 263.04 75.8864 262.83 76.4602C262.619 77.0341 262.514 77.6989 262.514 78.4545C262.514 79.2159 262.619 79.8892 262.83 80.4744C263.045 81.054 263.355 81.5085 263.759 81.8381C264.168 82.1619 264.67 82.3239 265.267 82.3239ZM280.716 85.2557C279.37 85.2557 278.211 84.983 277.239 84.4375C276.273 83.8864 275.529 83.108 275.006 82.1023C274.483 81.0909 274.222 79.8949 274.222 78.5142C274.222 77.1676 274.483 75.9858 275.006 74.9688C275.529 73.9517 276.265 73.1591 277.213 72.5909C278.168 72.0227 279.287 71.7386 280.571 71.7386C281.435 71.7386 282.239 71.8778 282.983 72.1562C283.733 72.429 284.387 72.8409 284.944 73.392C285.506 73.9432 285.944 74.6364 286.256 75.4716C286.569 76.3011 286.725 77.2727 286.725 78.3864V79.3835H275.671V77.1335H283.307C283.307 76.6108 283.194 76.1477 282.966 75.7443C282.739 75.3409 282.424 75.0256 282.02 74.7983C281.623 74.5653 281.16 74.4489 280.631 74.4489C280.08 74.4489 279.591 74.5767 279.165 74.8324C278.745 75.0824 278.415 75.4205 278.177 75.8466C277.938 76.267 277.816 76.7358 277.81 77.2528V79.392C277.81 80.0398 277.929 80.5994 278.168 81.071C278.412 81.5426 278.756 81.9062 279.199 82.1619C279.642 82.4176 280.168 82.5455 280.776 82.5455C281.179 82.5455 281.549 82.4886 281.884 82.375C282.219 82.2614 282.506 82.0909 282.745 81.8636C282.983 81.6364 283.165 81.358 283.29 81.0284L286.648 81.25C286.478 82.0568 286.128 82.7614 285.6 83.3636C285.077 83.9602 284.401 84.4261 283.571 84.7614C282.748 85.0909 281.796 85.2557 280.716 85.2557ZM301.147 71.9091L296.57 85H292.48L287.903 71.9091H291.738L294.457 81.2756H294.593L297.303 71.9091H301.147Z" fill="#22D3EE"/>
<path d="M530.186 364H531.758L536.24 349.781H534.316L531.172 360.377L530.957 361.09L530.752 360.396L527.627 349.781H525.693L530.186 364ZM539.194 353.434V355.006H542.788V362.438H539.194V364H548.042V362.438H544.595V353.434H539.194ZM542.554 350.66C542.554 350.953 542.641 351.197 542.817 351.393C542.999 351.588 543.273 351.686 543.637 351.686C543.996 351.686 544.266 351.588 544.448 351.393C544.63 351.197 544.721 350.953 544.721 350.66C544.721 350.497 544.695 350.348 544.643 350.211C544.591 350.074 544.513 349.96 544.409 349.869C544.324 349.785 544.217 349.719 544.087 349.674C543.957 349.622 543.807 349.596 543.637 349.596C543.468 349.596 543.315 349.622 543.179 349.674C543.048 349.719 542.941 349.785 542.856 349.869C542.752 349.967 542.674 350.084 542.622 350.221C542.576 350.357 542.554 350.504 542.554 350.66ZM558.144 361.197C558.144 361.367 558.112 361.526 558.046 361.676C557.981 361.826 557.887 361.962 557.763 362.086C557.561 362.288 557.282 362.447 556.923 362.564C556.565 362.675 556.145 362.73 555.664 362.73C555.358 362.73 555.048 362.698 554.736 362.633C554.423 362.568 554.14 362.457 553.886 362.301C553.626 362.145 553.408 361.939 553.232 361.686C553.063 361.432 552.965 361.119 552.939 360.748H551.132C551.132 361.197 551.233 361.63 551.435 362.047C551.643 362.464 551.943 362.828 552.334 363.141C552.718 363.46 553.19 363.717 553.75 363.912C554.31 364.101 554.948 364.195 555.664 364.195C556.289 364.195 556.865 364.12 557.392 363.971C557.92 363.821 558.372 363.609 558.75 363.336C559.127 363.062 559.42 362.734 559.629 362.35C559.843 361.965 559.951 361.539 559.951 361.07C559.951 360.634 559.856 360.25 559.668 359.918C559.485 359.586 559.218 359.293 558.867 359.039C558.515 358.792 558.082 358.58 557.568 358.404C557.054 358.222 556.471 358.062 555.82 357.926C555.325 357.828 554.915 357.727 554.589 357.623C554.27 357.519 554.017 357.402 553.828 357.271C553.632 357.141 553.496 356.995 553.418 356.832C553.339 356.669 553.3 356.484 553.3 356.275C553.3 356.074 553.349 355.878 553.447 355.689C553.545 355.501 553.691 355.335 553.886 355.191C554.075 355.048 554.313 354.934 554.599 354.85C554.892 354.765 555.231 354.723 555.615 354.723C555.986 354.723 556.318 354.775 556.611 354.879C556.91 354.983 557.164 355.12 557.373 355.289C557.581 355.458 557.744 355.654 557.861 355.875C557.978 356.09 558.037 356.311 558.037 356.539H559.843C559.843 356.077 559.742 355.647 559.541 355.25C559.345 354.846 559.065 354.495 558.701 354.195C558.336 353.896 557.893 353.661 557.373 353.492C556.852 353.323 556.266 353.238 555.615 353.238C555.009 353.238 554.453 353.32 553.945 353.482C553.444 353.645 553.011 353.867 552.646 354.146C552.282 354.426 551.998 354.755 551.796 355.133C551.595 355.504 551.494 355.904 551.494 356.334C551.494 356.77 551.591 357.154 551.787 357.486C551.982 357.812 552.259 358.095 552.617 358.336C552.968 358.583 553.392 358.795 553.886 358.971C554.388 359.146 554.941 359.296 555.546 359.42C556.041 359.518 556.455 359.628 556.787 359.752C557.119 359.869 557.386 359.999 557.587 360.143C557.789 360.286 557.933 360.445 558.017 360.621C558.102 360.79 558.144 360.982 558.144 361.197ZM563.618 353.434V355.006H567.211V362.438H563.618V364H572.465V362.438H569.018V353.434H563.618ZM566.977 350.66C566.977 350.953 567.065 351.197 567.241 351.393C567.423 351.588 567.696 351.686 568.061 351.686C568.419 351.686 568.689 351.588 568.871 351.393C569.054 351.197 569.145 350.953 569.145 350.66C569.145 350.497 569.119 350.348 569.067 350.211C569.015 350.074 568.937 349.96 568.832 349.869C568.748 349.785 568.64 349.719 568.51 349.674C568.38 349.622 568.23 349.596 568.061 349.596C567.892 349.596 567.739 349.622 567.602 349.674C567.472 349.719 567.364 349.785 567.28 349.869C567.176 349.967 567.097 350.084 567.045 350.221C567 350.357 566.977 350.504 566.977 350.66ZM579.823 350.875H578.007V353.434H575.234V354.83H578.007V360.572C578.007 361.223 578.092 361.78 578.261 362.242C578.437 362.698 578.674 363.069 578.974 363.355C579.273 363.648 579.625 363.863 580.029 364C580.439 364.13 580.878 364.195 581.347 364.195C581.627 364.195 581.907 364.182 582.187 364.156C582.473 364.13 582.743 364.091 582.997 364.039C583.251 363.993 583.486 363.938 583.7 363.873C583.915 363.801 584.098 363.72 584.247 363.629L583.993 362.35C583.883 362.376 583.739 362.408 583.564 362.447C583.394 362.48 583.212 362.512 583.017 362.545C582.815 362.577 582.61 362.607 582.402 362.633C582.193 362.652 581.991 362.662 581.796 362.662C581.529 362.662 581.275 362.63 581.034 362.564C580.8 362.499 580.592 362.385 580.409 362.223C580.227 362.066 580.084 361.855 579.98 361.588C579.876 361.321 579.823 360.982 579.823 360.572V354.83H583.847V353.434H579.823V350.875ZM600.8 353.434H599.179V364H600.897V355.592C600.936 355.488 600.985 355.39 601.044 355.299C601.109 355.208 601.184 355.126 601.268 355.055C601.379 354.964 601.512 354.895 601.669 354.85C601.832 354.798 602.02 354.771 602.235 354.771C602.43 354.771 602.6 354.798 602.743 354.85C602.893 354.895 603.016 354.97 603.114 355.074C603.218 355.185 603.293 355.325 603.339 355.494C603.391 355.663 603.417 355.859 603.417 356.08V364H605.136V356.09C605.136 356.051 605.136 356.018 605.136 355.992C605.136 355.96 605.136 355.927 605.136 355.895C605.155 355.732 605.194 355.585 605.253 355.455C605.311 355.318 605.393 355.198 605.497 355.094C605.601 354.996 605.731 354.918 605.887 354.859C606.044 354.801 606.229 354.771 606.444 354.771C606.646 354.771 606.822 354.798 606.971 354.85C607.128 354.902 607.258 354.98 607.362 355.084C607.46 355.195 607.535 355.335 607.587 355.504C607.639 355.673 607.665 355.868 607.665 356.09V364H609.384V356.109C609.384 355.602 609.325 355.162 609.208 354.791C609.091 354.413 608.921 354.107 608.7 353.873C608.498 353.665 608.251 353.508 607.958 353.404C607.665 353.294 607.336 353.238 606.971 353.238C606.705 353.245 606.457 353.281 606.229 353.346C606.008 353.411 605.806 353.499 605.624 353.609C605.481 353.707 605.347 353.821 605.223 353.951C605.1 354.081 604.992 354.221 604.901 354.371C604.83 354.208 604.742 354.062 604.637 353.932C604.54 353.801 604.429 353.691 604.305 353.6C604.136 353.482 603.938 353.395 603.71 353.336C603.488 353.271 603.238 353.238 602.958 353.238C602.463 353.245 602.04 353.352 601.688 353.561C601.343 353.769 601.063 354.059 600.848 354.43L600.8 353.434ZM613.031 368.268C613.506 368.268 613.926 368.18 614.291 368.004C614.655 367.828 614.974 367.61 615.248 367.35C615.521 367.089 615.752 366.806 615.941 366.5C616.136 366.194 616.296 365.904 616.42 365.631L621.781 353.434H619.759L617.035 360.289L616.537 361.529L616.068 360.25L613.168 353.434H611.146L615.697 363.502L614.974 364.908C614.909 365.038 614.818 365.204 614.701 365.406C614.59 365.608 614.457 365.803 614.3 365.992C614.138 366.181 613.952 366.344 613.744 366.48C613.542 366.617 613.317 366.686 613.07 366.686C612.979 366.686 612.852 366.679 612.689 366.666C612.533 366.66 612.373 366.65 612.211 366.637L611.918 368.111C612.035 368.137 612.207 368.17 612.435 368.209C612.663 368.248 612.862 368.268 613.031 368.268ZM637.62 364H639.046L640.677 357.525L640.941 355.885L641.214 357.525L642.864 364H644.29L646.536 353.434H644.935L643.763 360.172L643.499 361.832L643.216 360.172L641.536 353.434H640.374L638.685 360.172L638.421 361.686L638.206 360.172L636.976 353.434H635.374L637.62 364ZM653.484 364.195C654.513 364.195 655.376 363.99 656.072 363.58C656.775 363.163 657.303 362.688 657.654 362.154L656.551 361.295C656.219 361.725 655.802 362.07 655.301 362.33C654.799 362.59 654.227 362.721 653.582 362.721C653.094 362.721 652.648 362.63 652.244 362.447C651.84 362.265 651.495 362.014 651.209 361.695C650.929 361.396 650.708 361.051 650.545 360.66C650.389 360.27 650.288 359.817 650.242 359.303V359.234H657.791V358.424C657.791 357.688 657.697 357.005 657.508 356.373C657.326 355.742 657.046 355.191 656.668 354.723C656.29 354.26 655.815 353.899 655.242 353.639C654.676 353.372 654.012 353.238 653.25 353.238C652.645 353.238 652.052 353.362 651.473 353.609C650.9 353.857 650.389 354.212 649.939 354.674C649.484 355.143 649.119 355.715 648.846 356.393C648.572 357.063 648.436 357.825 648.436 358.678V359.088C648.436 359.824 648.559 360.504 648.807 361.129C649.054 361.754 649.399 362.294 649.842 362.75C650.285 363.206 650.815 363.561 651.434 363.814C652.059 364.068 652.742 364.195 653.484 364.195ZM653.25 354.723C653.712 354.723 654.109 354.807 654.441 354.977C654.78 355.146 655.06 355.367 655.281 355.641C655.503 355.914 655.675 356.24 655.799 356.617C655.923 356.988 655.984 357.337 655.984 357.662V357.75H650.301C650.372 357.262 650.496 356.832 650.672 356.461C650.854 356.083 651.076 355.764 651.336 355.504C651.596 355.25 651.889 355.058 652.215 354.928C652.54 354.791 652.885 354.723 653.25 354.723ZM669.983 358.834V358.629C669.983 358.076 669.938 357.551 669.846 357.057C669.755 356.555 669.622 356.1 669.446 355.689C669.277 355.325 669.082 354.996 668.86 354.703C668.639 354.404 668.388 354.15 668.108 353.941C667.796 353.72 667.447 353.548 667.063 353.424C666.679 353.3 666.259 353.238 665.804 353.238C665.439 353.238 665.1 353.274 664.788 353.346C664.475 353.417 664.189 353.521 663.929 353.658C663.72 353.769 663.525 353.902 663.343 354.059C663.16 354.208 662.994 354.378 662.845 354.566V349H661.038V364H662.698L662.786 362.799C662.903 362.949 663.027 363.085 663.157 363.209C663.287 363.333 663.424 363.447 663.567 363.551C663.867 363.759 664.202 363.919 664.573 364.029C664.951 364.14 665.367 364.195 665.823 364.195C666.22 364.195 666.588 364.146 666.927 364.049C667.272 363.951 667.587 363.814 667.874 363.639C668.271 363.385 668.61 363.066 668.889 362.682C669.176 362.291 669.407 361.852 669.583 361.363C669.713 360.992 669.811 360.595 669.876 360.172C669.947 359.742 669.983 359.296 669.983 358.834ZM668.177 358.629V358.834C668.177 359.146 668.157 359.452 668.118 359.752C668.079 360.051 668.017 360.331 667.932 360.592C667.828 360.937 667.688 361.249 667.512 361.529C667.337 361.809 667.119 362.04 666.858 362.223C666.663 362.366 666.442 362.477 666.194 362.555C665.947 362.626 665.673 362.662 665.374 362.662C665.061 362.662 664.775 362.623 664.514 362.545C664.254 362.46 664.02 362.343 663.811 362.193C663.603 362.044 663.417 361.871 663.255 361.676C663.098 361.474 662.962 361.256 662.845 361.021V356.402C662.955 356.168 663.089 355.953 663.245 355.758C663.408 355.556 663.593 355.38 663.802 355.23C664.003 355.087 664.235 354.977 664.495 354.898C664.755 354.814 665.042 354.771 665.354 354.771C665.641 354.771 665.901 354.804 666.136 354.869C666.37 354.934 666.582 355.025 666.77 355.143C667.044 355.305 667.275 355.53 667.464 355.816C667.652 356.103 667.805 356.419 667.923 356.764C668.007 357.044 668.069 357.343 668.108 357.662C668.154 357.975 668.177 358.297 668.177 358.629ZM680.261 361.197C680.261 361.367 680.229 361.526 680.164 361.676C680.099 361.826 680.004 361.962 679.88 362.086C679.679 362.288 679.399 362.447 679.041 362.564C678.683 362.675 678.263 362.73 677.781 362.73C677.475 362.73 677.166 362.698 676.853 362.633C676.541 362.568 676.257 362.457 676.004 362.301C675.743 362.145 675.525 361.939 675.349 361.686C675.18 361.432 675.082 361.119 675.056 360.748H673.25C673.25 361.197 673.351 361.63 673.552 362.047C673.761 362.464 674.06 362.828 674.451 363.141C674.835 363.46 675.307 363.717 675.867 363.912C676.427 364.101 677.065 364.195 677.781 364.195C678.406 364.195 678.982 364.12 679.509 363.971C680.037 363.821 680.489 363.609 680.867 363.336C681.244 363.062 681.537 362.734 681.746 362.35C681.961 361.965 682.068 361.539 682.068 361.07C682.068 360.634 681.974 360.25 681.785 359.918C681.602 359.586 681.336 359.293 680.984 359.039C680.632 358.792 680.199 358.58 679.685 358.404C679.171 358.222 678.588 358.062 677.937 357.926C677.442 357.828 677.032 357.727 676.707 357.623C676.388 357.519 676.134 357.402 675.945 357.271C675.75 357.141 675.613 356.995 675.535 356.832C675.457 356.669 675.418 356.484 675.418 356.275C675.418 356.074 675.466 355.878 675.564 355.689C675.662 355.501 675.808 355.335 676.004 355.191C676.192 355.048 676.43 354.934 676.716 354.85C677.009 354.765 677.348 354.723 677.732 354.723C678.103 354.723 678.435 354.775 678.728 354.879C679.028 354.983 679.282 355.12 679.49 355.289C679.698 355.458 679.861 355.654 679.978 355.875C680.095 356.09 680.154 356.311 680.154 356.539H681.961C681.961 356.077 681.86 355.647 681.658 355.25C681.462 354.846 681.183 354.495 680.818 354.195C680.453 353.896 680.011 353.661 679.49 353.492C678.969 353.323 678.383 353.238 677.732 353.238C677.127 353.238 676.57 353.32 676.062 353.482C675.561 353.645 675.128 353.867 674.763 354.146C674.399 354.426 674.115 354.755 673.914 355.133C673.712 355.504 673.611 355.904 673.611 356.334C673.611 356.77 673.709 357.154 673.904 357.486C674.099 357.812 674.376 358.095 674.734 358.336C675.086 358.583 675.509 358.795 676.004 358.971C676.505 359.146 677.058 359.296 677.664 359.42C678.158 359.518 678.572 359.628 678.904 359.752C679.236 359.869 679.503 359.999 679.705 360.143C679.907 360.286 680.05 360.445 680.134 360.621C680.219 360.79 680.261 360.982 680.261 361.197ZM685.735 353.434V355.006H689.329V362.438H685.735V364H694.582V362.438H691.135V353.434H685.735ZM689.094 350.66C689.094 350.953 689.182 351.197 689.358 351.393C689.54 351.588 689.814 351.686 690.178 351.686C690.536 351.686 690.806 351.588 690.989 351.393C691.171 351.197 691.262 350.953 691.262 350.66C691.262 350.497 691.236 350.348 691.184 350.211C691.132 350.074 691.054 349.96 690.95 349.869C690.865 349.785 690.758 349.719 690.627 349.674C690.497 349.622 690.347 349.596 690.178 349.596C690.009 349.596 689.856 349.622 689.719 349.674C689.589 349.719 689.482 349.785 689.397 349.869C689.293 349.967 689.215 350.084 689.163 350.221C689.117 350.357 689.094 350.504 689.094 350.66ZM701.941 350.875H700.124V353.434H697.351V354.83H700.124V360.572C700.124 361.223 700.209 361.78 700.378 362.242C700.554 362.698 700.792 363.069 701.091 363.355C701.39 363.648 701.742 363.863 702.146 364C702.556 364.13 702.995 364.195 703.464 364.195C703.744 364.195 704.024 364.182 704.304 364.156C704.59 364.13 704.861 364.091 705.114 364.039C705.368 363.993 705.603 363.938 705.818 363.873C706.032 363.801 706.215 363.72 706.364 363.629L706.111 362.35C706 362.376 705.857 362.408 705.681 362.447C705.512 362.48 705.329 362.512 705.134 362.545C704.932 362.577 704.727 362.607 704.519 362.633C704.31 362.652 704.109 362.662 703.913 362.662C703.646 362.662 703.392 362.63 703.152 362.564C702.917 362.499 702.709 362.385 702.527 362.223C702.344 362.066 702.201 361.855 702.097 361.588C701.993 361.321 701.941 360.982 701.941 360.572V354.83H705.964V353.434H701.941V350.875ZM714.543 364.195C715.572 364.195 716.434 363.99 717.131 363.58C717.834 363.163 718.361 362.688 718.713 362.154L717.609 361.295C717.277 361.725 716.861 362.07 716.359 362.33C715.858 362.59 715.285 362.721 714.641 362.721C714.152 362.721 713.706 362.63 713.303 362.447C712.899 362.265 712.554 362.014 712.268 361.695C711.988 361.396 711.766 361.051 711.604 360.66C711.447 360.27 711.346 359.817 711.301 359.303V359.234H718.85V358.424C718.85 357.688 718.755 357.005 718.566 356.373C718.384 355.742 718.104 355.191 717.727 354.723C717.349 354.26 716.874 353.899 716.301 353.639C715.734 353.372 715.07 353.238 714.309 353.238C713.703 353.238 713.111 353.362 712.531 353.609C711.958 353.857 711.447 354.212 710.998 354.674C710.542 355.143 710.178 355.715 709.904 356.393C709.631 357.063 709.494 357.825 709.494 358.678V359.088C709.494 359.824 709.618 360.504 709.865 361.129C710.113 361.754 710.458 362.294 710.9 362.75C711.343 363.206 711.874 363.561 712.492 363.814C713.117 364.068 713.801 364.195 714.543 364.195ZM714.309 354.723C714.771 354.723 715.168 354.807 715.5 354.977C715.839 355.146 716.118 355.367 716.34 355.641C716.561 355.914 716.734 356.24 716.857 356.617C716.981 356.988 717.043 357.337 717.043 357.662V357.75H711.359C711.431 357.262 711.555 356.832 711.73 356.461C711.913 356.083 712.134 355.764 712.395 355.504C712.655 355.25 712.948 355.058 713.273 354.928C713.599 354.791 713.944 354.723 714.309 354.723ZM727.126 359.4V349.781H725.309V359.4H727.126ZM725.134 363.053C725.134 363.352 725.225 363.603 725.407 363.805C725.596 364.007 725.876 364.107 726.247 364.107C726.618 364.107 726.898 364.007 727.087 363.805C727.282 363.603 727.38 363.352 727.38 363.053C727.38 362.74 727.282 362.48 727.087 362.271C726.898 362.063 726.618 361.959 726.247 361.959C725.876 361.959 725.596 362.063 725.407 362.271C725.225 362.48 725.134 362.74 725.134 363.053Z" fill="white"/>
<path d="M624.167 321C624.167 323.946 626.555 326.333 629.5 326.333C632.446 326.333 634.833 323.946 634.833 321C634.833 318.054 632.446 315.667 629.5 315.667C626.555 315.667 624.167 318.054 624.167 321ZM732.279 180.628C732.625 180.198 732.558 179.568 732.128 179.221L725.12 173.574C724.69 173.227 724.061 173.295 723.714 173.725C723.367 174.155 723.435 174.784 723.865 175.131L730.094 180.151L725.074 186.38C724.727 186.81 724.795 187.439 725.225 187.786C725.655 188.133 726.284 188.065 726.631 187.635L732.279 180.628ZM630.485 320.824C621.383 269.826 623.163 237.533 638.752 216.685C654.339 195.841 683.976 186.112 731.607 180.994L731.393 179.006C683.766 184.123 653.3 193.892 637.151 215.488C621.004 237.08 619.413 270.169 628.516 321.176L630.485 320.824Z" fill="#334155"/>
</g>
<defs>
<clipPath id="clip0_201_55">
<rect width="1500" height="500" rx="32" fill="white"/>
</clipPath>
</defs>
</svg>
